<svg xmlns="http://www.w3.org/2000/svg" xmlns:xlink="http://www.w3.org/1999/xlink" width="1186" height="931"><g transform="translate(-160 -80)"><path d="M860 737.8h440v204.4H860z" stroke="#000" stroke-width="2" fill="#d1bcd2"/><use xlink:href="#a" transform="matrix(1,0,0,1,865,742.8) translate(215 14.700000000000012)"/><use xlink:href="#b" transform="matrix(1,0,0,1,865,742.8) translate(215 36.30000000000001)"/><use xlink:href="#b" transform="matrix(1,0,0,1,865,742.8) translate(215 57.90000000000001)"/><use xlink:href="#b" transform="matrix(1,0,0,1,865,742.8) translate(215 79.50000000000003)"/><use xlink:href="#b" transform="matrix(1,0,0,1,865,742.8) translate(215 101.10000000000002)"/><use xlink:href="#b" transform="matrix(1,0,0,1,865,742.8) translate(215 122.70000000000002)"/><use xlink:href="#b" transform="matrix(1,0,0,1,865,742.8) translate(215 144.3)"/><use xlink:href="#b" transform="matrix(1,0,0,1,865,742.8) translate(215 165.9)"/><use xlink:href="#c" transform="matrix(1,0,0,1,865,742.8) translate(187.5 187.5)"/><path d="M180 737.8h640v204.4H180z" stroke="#000" stroke-width="2" fill="#c7e8ac"/><use xlink:href="#a" transform="matrix(1,0,0,1,185,742.8) translate(315 14.700000000000012)"/><use xlink:href="#b" transform="matrix(1,0,0,1,185,742.8) translate(315 36.30000000000001)"/><use xlink:href="#b" transform="matrix(1,0,0,1,185,742.8) translate(315 57.90000000000001)"/><use xlink:href="#b" transform="matrix(1,0,0,1,185,742.8) translate(315 79.50000000000003)"/><use xlink:href="#b" transform="matrix(1,0,0,1,185,742.8) translate(315 101.10000000000002)"/><use xlink:href="#b" transform="matrix(1,0,0,1,185,742.8) translate(315 122.70000000000002)"/><use xlink:href="#b" transform="matrix(1,0,0,1,185,742.8) translate(315 144.3)"/><use xlink:href="#b" transform="matrix(1,0,0,1,185,742.8) translate(315 165.9)"/><use xlink:href="#d" transform="matrix(1,0,0,1,185,742.8) translate(263.1 187.5)"/><use xlink:href="#e" transform="matrix(1,0,0,1,185,742.8) translate(350.95000000000005 187.5)"/><path d="M180 460h440V100H180z" stroke="#000" stroke-width="2" fill="#ffeca9"/><use xlink:href="#f" transform="matrix(1,0,0,1,185,105) translate(191.05 178.6)"/><path d="M220 260h160V140H220z" stroke="#000" stroke-width="2" fill="#fff"/><use xlink:href="#g" transform="matrix(1,0,0,1,225,145) translate(56 58.6)"/><path d="M220 420h160V300H220z" stroke="#000" stroke-width="2" fill="#fff"/><use xlink:href="#h" transform="matrix(1,0,0,1,225,305) translate(35.575 58.6)"/><path d="M420 420h160V300H420z" stroke="#000" stroke-width="2" fill="#fff"/><use xlink:href="#i" transform="matrix(1,0,0,1,425,305) translate(41.574999999999996 47.8)"/><use xlink:href="#j" transform="matrix(1,0,0,1,425,305) translate(31.074999999999996 69.4)"/><path d="M300 260v39" stroke="#000" stroke-width="2" fill="none"/><path d="M300 299l-4.64-14.27h9.28z"/><path d="M300.73 300h-1.46L294 283.73h12zm-4-14.27l3.27 10.03 3.26-10.03z"/><path d="M380 360h39" stroke="#000" stroke-width="2" fill="none"/><path d="M419 360l-14.27 4.64v-9.28z"/><path d="M420 359.27v1.46L403.73 366v-12zm-14.27 4l10.03-3.27-10.03-3.26z"/><path d="M420 700h160V580H420z" stroke="#000" stroke-width="2" fill="#fff"/><use xlink:href="#i" transform="matrix(1,0,0,1,425,585) translate(41.574999999999996 47.8)"/><use xlink:href="#j" transform="matrix(1,0,0,1,425,585) translate(31.074999999999996 69.4)"/><path d="M420 780h160v120H420z" stroke="#000" stroke-width="2" fill="#fff"/><use xlink:href="#k" transform="matrix(1,0,0,1,425,785) translate(36.05 58.6)"/><path d="M200 980h1120" stroke="#000" stroke-width="5" fill="none"/><path d="M620 780h160v120H620z" stroke="#000" stroke-width="2" fill="#fff"/><use xlink:href="#l" transform="matrix(1,0,0,1,625,785) translate(4.099999999999994 58.6)"/><use xlink:href="#m" transform="matrix(1,0,0,1,625,785) translate(45.949999999999996 58.6)"/><use xlink:href="#n" transform="matrix(1,0,0,1,625,785) translate(106.94999999999999 58.6)"/><path d="M220 780h160v120H220z" stroke="#000" stroke-width="2" fill="#c1e4f7"/><use xlink:href="#o" transform="matrix(1,0,0,1,225,785) translate(48.55 58.6)"/><path d="M220 580h160v120H220z" stroke="#000" stroke-width="2" fill="#fff"/><use xlink:href="#p" transform="matrix(1,0,0,1,225,585) translate(39.9 58.6)"/><use xlink:href="#q" transform="matrix(1,0,0,1,225,585) translate(76.9 58.6)"/><use xlink:href="#r" transform="matrix(1,0,0,1,225,585) translate(86.9 58.6)"/><path d="M220 500h160v60H220z" stroke="#000" stroke-width="2" fill="#fff"/><use xlink:href="#s" transform="matrix(1,0,0,1,225,505) translate(43.074999999999996 28.6)"/><path d="M900 780h160v120H900z" stroke="#000" stroke-width="2" fill="#fff"/><use xlink:href="#t" transform="matrix(1,0,0,1,905,785) translate(9.099999999999994 58.6)"/><path d="M1100 780h160v120h-160z" stroke="#000" stroke-width="2" fill="#fff"/><use xlink:href="#u" transform="matrix(1,0,0,1,1105,785) translate(56.525 58.6)"/><path d="M300 580v-19" stroke="#000" stroke-width="2" fill="none"/><path d="M304.64 575.27h-9.28L300 561z"/><path d="M306 576.27h-12l5.27-16.27h1.46zm-9.26-2h6.52L300 564.24z"/><path d="M500 700v79" stroke="#000" stroke-width="2" fill="none"/><path d="M500 779l-4.64-14.27h9.28z"/><path d="M500.73 780h-1.46L494 763.73h12zm-4-14.27l3.27 10.03 3.26-10.03z"/><path d="M500 420v159" stroke="#000" stroke-width="2" fill="none"/><path d="M500 579l-4.64-14.27h9.28z"/><path d="M500.73 580h-1.46L494 563.73h12zm-4-14.27l3.27 10.03 3.26-10.03z"/><path d="M300 780v-79" stroke="#000" stroke-width="2" fill="none"/><path d="M304.64 715.27h-9.28L300 701z"/><path d="M306 716.27h-12l5.27-16.27h1.46zm-9.26-2h6.52L300 704.24z"/><path d="M700 900v80" stroke="#000" stroke-width="2" fill="none"/><path d="M704.64 914.27h-9.28L700 900z"/><path d="M706 915.27h-12l4.95-15.27h2.1zm-9.26-2h6.52L700 903.24z"/><path d="M500 900v80" stroke="#000" stroke-width="2" fill="none"/><path d="M500 980l-4.64-14.27h9.28z" stroke="#000" stroke-width="2"/><path d="M300 900v80" stroke="#000" stroke-width="2" fill="none"/><path d="M304.64 914.27h-9.28L300 900z"/><path d="M306 915.27h-12l4.95-15.27h2.1zm-9.26-2h6.52L300 903.24z"/><path d="M980 900v40h1.56v40" stroke="#000" stroke-width="2" fill="none"/><path d="M984.64 914.27h-9.28L980 900z"/><path d="M986 915.27h-12l4.95-15.27h2.1zm-9.26-2h6.52L980 903.24z"/><path d="M1180 900v80" stroke="#000" stroke-width="2" fill="none"/><path d="M1184.64 914.27h-9.28L1180 900z"/><path d="M1186 915.27h-12l4.95-15.27h2.1zm-9.26-2h6.52l-3.26-10.03z"/><defs><path d="M30 0v-248h33v221h125V0H30" id="v"/><path d="M141-36C126-15 110 5 73 4 37 3 15-17 15-53c-1-64 63-63 125-63 3-35-9-54-41-54-24 1-41 7-42 31l-33-3c5-37 33-52 76-52 45 0 72 20 72 64v82c-1 20 7 32 28 27v20c-31 9-61-2-59-35zM48-53c0 20 12 33 32 33 41-3 63-29 60-74-43 2-92-5-92 41" id="w"/><path d="M115-194c55 1 70 41 70 98S169 2 115 4C84 4 66-9 55-30l1 105H24l-1-265h31l2 30c10-21 28-34 59-34zm-8 174c40 0 45-34 45-75s-6-73-45-74c-42 0-51 32-51 76 0 43 10 73 51 73" id="x"/><path d="M59-47c-2 24 18 29 38 22v24C64 9 27 4 27-40v-127H5v-23h24l9-43h21v43h35v23H59v120" id="y"/><path d="M100-194c62-1 85 37 85 99 1 63-27 99-86 99S16-35 15-95c0-66 28-99 85-99zM99-20c44 1 53-31 53-75 0-43-8-75-51-75s-53 32-53 75 10 74 51 75" id="z"/><g id="c"><use transform="matrix(0.05,0,0,0.05,0,0)" xlink:href="#v"/><use transform="matrix(0.05,0,0,0.05,10,0)" xlink:href="#w"/><use transform="matrix(0.05,0,0,0.05,20,0)" xlink:href="#x"/><use transform="matrix(0.05,0,0,0.05,30,0)" xlink:href="#y"/><use transform="matrix(0.05,0,0,0.05,35,0)" xlink:href="#z"/><use transform="matrix(0.05,0,0,0.05,45,0)" xlink:href="#x"/></g><path d="M233-177c-1 41-23 64-60 70L243 0h-38l-65-103H63V0H30v-248c88 3 205-21 203 71zM63-129c60-2 137 13 137-47 0-61-80-42-137-45v92" id="A"/><path d="M135-143c-3-34-86-38-87 0 15 53 115 12 119 90S17 21 10-45l28-5c4 36 97 45 98 0-10-56-113-15-118-90-4-57 82-63 122-42 12 7 21 19 24 35" id="B"/><path d="M115-194c53 0 69 39 70 98 0 66-23 100-70 100C84 3 66-7 56-30L54 0H23l1-261h32v101c10-23 28-34 59-34zm-8 174c40 0 45-34 45-75 0-40-5-75-45-74-42 0-51 32-51 76 0 43 10 73 51 73" id="C"/><path d="M100-194c63 0 86 42 84 106H49c0 40 14 67 53 68 26 1 43-12 49-29l28 8c-11 28-37 45-77 45C44 4 14-33 15-96c1-61 26-98 85-98zm52 81c6-60-76-77-97-28-3 7-6 17-6 28h103" id="D"/><path d="M114-163C36-179 61-72 57 0H25l-1-190h30c1 12-1 29 2 39 6-27 23-49 58-41v29" id="E"/><path d="M179-190L93 31C79 59 56 82 12 73V49c39 6 53-20 64-50L1-190h34L92-34l54-156h33" id="F"/><g id="d"><use transform="matrix(0.05,0,0,0.05,0,0)" xlink:href="#A"/><use transform="matrix(0.05,0,0,0.05,12.950000000000001,0)" xlink:href="#w"/><use transform="matrix(0.05,0,0,0.05,22.950000000000003,0)" xlink:href="#B"/><use transform="matrix(0.05,0,0,0.05,31.950000000000003,0)" xlink:href="#x"/><use transform="matrix(0.05,0,0,0.05,41.95,0)" xlink:href="#C"/><use transform="matrix(0.05,0,0,0.05,51.95,0)" xlink:href="#D"/><use transform="matrix(0.05,0,0,0.05,61.95,0)" xlink:href="#E"/><use transform="matrix(0.05,0,0,0.05,67.9,0)" xlink:href="#E"/><use transform="matrix(0.05,0,0,0.05,73.85000000000001,0)" xlink:href="#F"/></g><path d="M30-248c87 1 191-15 191 75 0 78-77 80-158 76V0H30v-248zm33 125c57 0 124 11 124-50 0-59-68-47-124-48v98" id="G"/><path d="M24-231v-30h32v30H24zM24 0v-190h32V0H24" id="H"/><g id="e"><use transform="matrix(0.05,0,0,0.05,0,0)" xlink:href="#G"/><use transform="matrix(0.05,0,0,0.05,12,0)" xlink:href="#H"/></g><path d="M108 0H70L1-190h34L89-25l56-165h34" id="I"/><g id="f"><use transform="matrix(0.05,0,0,0.05,0,0)" xlink:href="#A"/><use transform="matrix(0.05,0,0,0.05,12.950000000000001,0)" xlink:href="#z"/><use transform="matrix(0.05,0,0,0.05,22.950000000000003,0)" xlink:href="#I"/><use transform="matrix(0.05,0,0,0.05,31.950000000000003,0)" xlink:href="#D"/><use transform="matrix(0.05,0,0,0.05,41.95,0)" xlink:href="#E"/></g><path d="M143 4C61 4 22-44 18-125c-5-107 100-154 193-111 17 8 29 25 37 43l-32 9c-13-25-37-40-76-40-61 0-88 39-88 99 0 61 29 100 91 101 35 0 62-11 79-27v-45h-74v-28h105v86C228-13 192 4 143 4" id="J"/><path d="M185-189c-5-48-123-54-124 2 14 75 158 14 163 119 3 78-121 87-175 55-17-10-28-26-33-46l33-7c5 56 141 63 141-1 0-78-155-14-162-118-5-82 145-84 179-34 5 7 8 16 11 25" id="K"/><g id="g"><use transform="matrix(0.05,0,0,0.05,0,0)" xlink:href="#J"/><use transform="matrix(0.05,0,0,0.05,14,0)" xlink:href="#G"/><use transform="matrix(0.05,0,0,0.05,26,0)" xlink:href="#K"/></g><path d="M141 0L90-78 38 0H4l68-98-65-92h35l48 74 47-74h35l-64 92 68 98h-35" id="L"/><path d="M63-220v92h138v28H63V0H30v-248h175v28H63" id="M"/><path d="M24 0v-261h32V0H24" id="N"/><path d="M96-169c-40 0-48 33-48 73s9 75 48 75c24 0 41-14 43-38l32 2c-6 37-31 61-74 61-59 0-76-41-82-99-10-93 101-131 147-64 4 7 5 14 7 22l-32 3c-4-21-16-35-41-35" id="O"/><path d="M117-194c89-4 53 116 60 194h-32v-121c0-31-8-49-39-48C34-167 62-67 57 0H25l-1-190h30c1 10-1 24 2 32 11-22 29-35 61-36" id="P"/><g id="h"><use transform="matrix(0.05,0,0,0.05,0,0)" xlink:href="#G"/><use transform="matrix(0.05,0,0,0.05,12,0)" xlink:href="#H"/><use transform="matrix(0.05,0,0,0.05,15.949999999999998,0)" xlink:href="#L"/><use transform="matrix(0.05,0,0,0.05,24.95,0)" xlink:href="#M"/><use transform="matrix(0.05,0,0,0.05,35.9,0)" xlink:href="#w"/><use transform="matrix(0.05,0,0,0.05,45.9,0)" xlink:href="#N"/><use transform="matrix(0.05,0,0,0.05,49.85,0)" xlink:href="#O"/><use transform="matrix(0.05,0,0,0.05,58.85,0)" xlink:href="#z"/><use transform="matrix(0.05,0,0,0.05,68.85,0)" xlink:href="#P"/></g><path d="M197 0v-115H63V0H30v-248h33v105h134v-105h34V0h-34" id="Q"/><g id="i"><use transform="matrix(0.05,0,0,0.05,0,0)" xlink:href="#Q"/><use transform="matrix(0.05,0,0,0.05,12.950000000000001,0)" xlink:href="#z"/><use transform="matrix(0.05,0,0,0.05,22.950000000000003,0)" xlink:href="#x"/><use transform="matrix(0.05,0,0,0.05,32.95,0)" xlink:href="#D"/><use transform="matrix(0.05,0,0,0.05,42.95,0)" xlink:href="#A"/><use transform="matrix(0.05,0,0,0.05,55.900000000000006,0)" xlink:href="#M"/></g><g id="j"><use transform="matrix(0.05,0,0,0.05,0,0)" xlink:href="#y"/><use transform="matrix(0.05,0,0,0.05,5,0)" xlink:href="#E"/><use transform="matrix(0.05,0,0,0.05,10.95,0)" xlink:href="#w"/><use transform="matrix(0.05,0,0,0.05,20.95,0)" xlink:href="#P"/><use transform="matrix(0.05,0,0,0.05,30.950000000000003,0)" xlink:href="#B"/><use transform="matrix(0.05,0,0,0.05,39.95,0)" xlink:href="#O"/><use transform="matrix(0.05,0,0,0.05,48.95,0)" xlink:href="#H"/><use transform="matrix(0.05,0,0,0.05,52.900000000000006,0)" xlink:href="#D"/><use transform="matrix(0.05,0,0,0.05,62.900000000000006,0)" xlink:href="#I"/><use transform="matrix(0.05,0,0,0.05,71.9,0)" xlink:href="#D"/><use transform="matrix(0.05,0,0,0.05,81.9,0)" xlink:href="#E"/></g><path d="M210-169c-67 3-38 105-44 169h-31v-121c0-29-5-50-35-48C34-165 62-65 56 0H25l-1-190h30c1 10-1 24 2 32 10-44 99-50 107 0 11-21 27-35 58-36 85-2 47 119 55 194h-31v-121c0-29-5-49-35-48" id="R"/><g id="k"><use transform="matrix(0.05,0,0,0.05,0,0)" xlink:href="#R"/><use transform="matrix(0.05,0,0,0.05,14.950000000000001,0)" xlink:href="#w"/><use transform="matrix(0.05,0,0,0.05,24.950000000000003,0)" xlink:href="#I"/><use transform="matrix(0.05,0,0,0.05,33.95,0)" xlink:href="#x"/><use transform="matrix(0.05,0,0,0.05,43.95,0)" xlink:href="#E"/><use transform="matrix(0.05,0,0,0.05,49.900000000000006,0)" xlink:href="#z"/><use transform="matrix(0.05,0,0,0.05,59.900000000000006,0)" xlink:href="#L"/><use transform="matrix(0.05,0,0,0.05,68.9,0)" xlink:href="#F"/></g><path d="M266 0h-40l-56-210L115 0H75L2-248h35L96-30l15-64 43-154h32l59 218 59-218h35" id="S"/><path d="M33 0v-248h34V0H33" id="T"/><g id="l"><use transform="matrix(0.05,0,0,0.05,0,0)" xlink:href="#S"/><use transform="matrix(0.05,0,0,0.05,16.95,0)" xlink:href="#H"/><use transform="matrix(0.05,0,0,0.05,20.9,0)" xlink:href="#M"/><use transform="matrix(0.05,0,0,0.05,31.85,0)" xlink:href="#T"/></g><g id="m"><use transform="matrix(0.05,0,0,0.05,0,0)" xlink:href="#w"/><use transform="matrix(0.05,0,0,0.05,10,0)" xlink:href="#O"/><use transform="matrix(0.05,0,0,0.05,19,0)" xlink:href="#O"/><use transform="matrix(0.05,0,0,0.05,28,0)" xlink:href="#D"/><use transform="matrix(0.05,0,0,0.05,38,0)" xlink:href="#B"/><use transform="matrix(0.05,0,0,0.05,47,0)" xlink:href="#B"/></g><g id="n"><use transform="matrix(0.05,0,0,0.05,0,0)" xlink:href="#x"/><use transform="matrix(0.05,0,0,0.05,10,0)" xlink:href="#z"/><use transform="matrix(0.05,0,0,0.05,20,0)" xlink:href="#H"/><use transform="matrix(0.05,0,0,0.05,23.95,0)" xlink:href="#P"/><use transform="matrix(0.05,0,0,0.05,33.95,0)" xlink:href="#y"/></g><g id="o"><use transform="matrix(0.05,0,0,0.05,0,0)" xlink:href="#x"/><use transform="matrix(0.05,0,0,0.05,10,0)" xlink:href="#H"/><use transform="matrix(0.05,0,0,0.05,13.949999999999998,0)" xlink:href="#x"/><use transform="matrix(0.05,0,0,0.05,23.95,0)" xlink:href="#z"/><use transform="matrix(0.05,0,0,0.05,33.95,0)" xlink:href="#H"/><use transform="matrix(0.05,0,0,0.05,37.900000000000006,0)" xlink:href="#P"/><use transform="matrix(0.05,0,0,0.05,47.900000000000006,0)" xlink:href="#y"/></g><g id="p"><use transform="matrix(0.05,0,0,0.05,0,0)" xlink:href="#G"/><use transform="matrix(0.05,0,0,0.05,12,0)" xlink:href="#w"/><use transform="matrix(0.05,0,0,0.05,22,0)" xlink:href="#P"/></g><path d="M0 4l72-265h28L28 4H0" id="U"/><use transform="matrix(0.05,0,0,0.05,0,0)" xlink:href="#U" id="q"/><path d="M127-220V0H93v-220H8v-28h204v28h-85" id="V"/><g id="r"><use transform="matrix(0.05,0,0,0.05,0,0)" xlink:href="#V"/><use transform="matrix(0.05,0,0,0.05,10.3,0)" xlink:href="#H"/><use transform="matrix(0.05,0,0,0.05,14.25,0)" xlink:href="#N"/><use transform="matrix(0.05,0,0,0.05,18.2,0)" xlink:href="#y"/></g><path d="M212-179c-10-28-35-45-73-45-59 0-87 40-87 99 0 60 29 101 89 101 43 0 62-24 78-52l27 14C228-24 195 4 139 4 59 4 22-46 18-125c-6-104 99-153 187-111 19 9 31 26 39 46" id="W"/><g id="s"><use transform="matrix(0.05,0,0,0.05,0,0)" xlink:href="#W"/><use transform="matrix(0.05,0,0,0.05,12.950000000000001,0)" xlink:href="#w"/><use transform="matrix(0.05,0,0,0.05,22.950000000000003,0)" xlink:href="#R"/><use transform="matrix(0.05,0,0,0.05,37.900000000000006,0)" xlink:href="#D"/><use transform="matrix(0.05,0,0,0.05,47.900000000000006,0)" xlink:href="#E"/><use transform="matrix(0.05,0,0,0.05,53.85,0)" xlink:href="#w"/></g><path d="M140-251c81 0 123 46 123 126C263-53 228-8 163 1c7 30 30 48 69 40v23c-55 16-95-15-103-61C56-3 17-48 17-125c0-80 42-126 123-126zm0 227c63 0 89-41 89-101s-29-99-89-99c-61 0-89 39-89 99S79-25 140-24" id="X"/><path d="M84 4C-5 8 30-112 23-190h32v120c0 31 7 50 39 49 72-2 45-101 50-169h31l1 190h-30c-1-10 1-25-2-33-11 22-28 36-60 37" id="Y"/><path d="M85-194c31 0 48 13 60 33l-1-100h32l1 261h-30c-2-10 0-23-3-31C134-8 116 4 85 4 32 4 16-35 15-94c0-66 23-100 70-100zm9 24c-40 0-46 34-46 75 0 40 6 74 45 74 42 0 51-32 51-76 0-42-9-74-50-73" id="Z"/><g id="t"><use transform="matrix(0.05,0,0,0.05,0,0)" xlink:href="#X"/><use transform="matrix(0.05,0,0,0.05,14,0)" xlink:href="#J"/><use transform="matrix(0.05,0,0,0.05,28,0)" xlink:href="#E"/><use transform="matrix(0.05,0,0,0.05,33.95,0)" xlink:href="#z"/><use transform="matrix(0.05,0,0,0.05,43.95,0)" xlink:href="#Y"/><use transform="matrix(0.05,0,0,0.05,53.95,0)" xlink:href="#P"/><use transform="matrix(0.05,0,0,0.05,63.95,0)" xlink:href="#Z"/><use transform="matrix(0.05,0,0,0.05,73.95,0)" xlink:href="#W"/><use transform="matrix(0.05,0,0,0.05,86.9,0)" xlink:href="#z"/><use transform="matrix(0.05,0,0,0.05,96.9,0)" xlink:href="#P"/><use transform="matrix(0.05,0,0,0.05,106.9,0)" xlink:href="#y"/><use transform="matrix(0.05,0,0,0.05,111.9,0)" xlink:href="#E"/><use transform="matrix(0.05,0,0,0.05,117.85000000000001,0)" xlink:href="#z"/><use transform="matrix(0.05,0,0,0.05,127.85000000000001,0)" xlink:href="#N"/></g><g id="u"><use transform="matrix(0.05,0,0,0.05,0,0)" xlink:href="#K"/><use transform="matrix(0.05,0,0,0.05,12,0)" xlink:href="#K"/><use transform="matrix(0.05,0,0,0.05,24,0)" xlink:href="#Q"/></g></defs></g></svg>