<?xml version="1.0" encoding="UTF-8" standalone="no"?>
<!-- Created with Inkscape (http://www.inkscape.org/) -->

<svg
   xmlns:dc="http://purl.org/dc/elements/1.1/"
   xmlns:cc="http://creativecommons.org/ns#"
   xmlns:rdf="http://www.w3.org/1999/02/22-rdf-syntax-ns#"
   xmlns:svg="http://www.w3.org/2000/svg"
   xmlns="http://www.w3.org/2000/svg"
   xmlns:sodipodi="http://sodipodi.sourceforge.net/DTD/sodipodi-0.dtd"
   xmlns:inkscape="http://www.inkscape.org/namespaces/inkscape"
   width="210mm"
   height="297mm"
   viewBox="0 0 210 297"
   version="1.1"
   id="svg3709"
   inkscape:version="0.92.1 r15371"
   sodipodi:docname="Pipoint camera mount (panelised).svg">
  <defs
     id="defs3703" />
  <sodipodi:namedview
     id="base"
     pagecolor="#ffffff"
     bordercolor="#666666"
     borderopacity="1.0"
     inkscape:pageopacity="0.0"
     inkscape:pageshadow="2"
     inkscape:zoom="2.8"
     inkscape:cx="442.67573"
     inkscape:cy="595.83118"
     inkscape:document-units="mm"
     inkscape:current-layer="layer1"
     showgrid="false"
     inkscape:window-width="3200"
     inkscape:window-height="1749"
     inkscape:window-x="-14"
     inkscape:window-y="-14"
     inkscape:window-maximized="1" />
  <metadata
     id="metadata3706">
    <rdf:RDF>
      <cc:Work
         rdf:about="">
        <dc:format>image/svg+xml</dc:format>
        <dc:type
           rdf:resource="http://purl.org/dc/dcmitype/StillImage" />
        <dc:title></dc:title>
      </cc:Work>
    </rdf:RDF>
  </metadata>
  <g
     inkscape:label="Layer 1"
     inkscape:groupmode="layer"
     id="layer1">
    <path
       inkscape:connector-curvature="0"
       style="fill:none;stroke:#0000ff;stroke-width:0.01mm"
       d="m 30.88056,84.417609 0.329998,-0.01634 0.296001,-0.01466 h 1.752 2.048002 2.048002 2.048001 2.048001 1.056 0.992001 2.048 2.048 2.048001 2.047996 2.048 2.048003 2.047997 2.048002 2.047999 2.048 2.048002 2.047999 2.047999 2.048 2.048002 2.047999 2.048 2.047999 2.048002 2.047999 2.048 2.048002 2.047999 2.047999 2.048 0.207999 1.840003 2.047999 2.048004 2.04801 0.616 l 0.40801,0.0202 0.21799,0.0108 0.61001,0.091 0.196,0.05069 0.384,0.09931 0.53501,0.204994 0.105,0.05614 0.372,0.198868 0.408,0.298996 0.244,0.248467 0.0398,0.04053 0.0442,0.045 0.24001,0.361999 0.147,0.382004 0.0295,0.235001 0.0195,0.156001 v 0.867996 4.096001 2.533006 h -0.52 -1.48101 l -0.156,0.009 -0.15401,0.029 -0.14499,0.045 -0.134,0.061 -0.11901,0.077 -0.102,0.089 -0.082,0.101002 -0.06,0.107998 -0.037,0.115002 -0.012,0.117 v 0.812 0.688 l 0.012,0.117001 0.037,0.114998 0.06,0.108001 0.082,0.100998 0.102,0.089 0.11901,0.077 0.134,0.061 0.14499,0.045 0.15401,0.028 0.156,0.009 h 1.48101 0.52 v 0.01954 0.590458 2.048 4.096 0.24694 6e-5 h -0.52 -1.48101 l -0.156,0.009 -0.15401,0.028 -0.14499,0.045 -0.134,0.061 -0.11901,0.077 -0.102,0.089 -0.082,0.101 -0.06,0.108 -0.037,0.115 -0.012,0.117 v 1.051 0.449 l 0.012,0.117 0.037,0.116 0.06,0.108 0.082,0.101 0.102,0.089 0.11901,0.077 0.134,0.061 0.14499,0.045 0.15401,0.028 0.156,0.009 h 1.48101 0.52 v 0.848 4.096 0.0559 6e-5 h -0.52 -1.48101 l -0.156,0.009 -0.15401,0.028 -0.14499,0.045 -0.134,0.061 -0.11901,0.077 -0.102,0.089 -0.082,0.101 -0.06,0.10801 -0.037,0.11599 -0.012,0.117 v 1.24101 0.25899 l 0.012,0.117 0.037,0.11501 0.06,0.10799 0.082,0.10101 0.102,0.089 0.11901,0.077 0.134,0.061 0.14499,0.045 0.15401,0.028 0.156,0.009 h 1.48101 0.52 v 1.039 4.096 1.75055 0.0559 0.04 0.0195 6e-5 h -0.52 -1.48101 l -0.156,0.009 -0.15401,0.028 -0.14499,0.045 -0.134,0.061 -0.0603,0.039 -0.0587,0.038 -0.10201,0.089 -0.082,0.101 -0.06,0.108 -0.037,0.115 -0.012,0.117 v 1.48 0.02 l 0.012,0.117 0.037,0.115 0.06,0.108 0.082,0.101 0.10201,0.089 0.119,0.077 0.134,0.061 0.145,0.045 0.154,0.028 0.156,0.009 h 1.48101 0.52 v 3.326 2.048 1.024 0.1 l -0.049,0.391 -0.147,0.382 -0.10011,0.151 -0.1399,0.211 -0.084,0.0855 -0.244,0.24846 -0.408,0.299 -0.372,0.19887 -0.105,0.0561 -0.535,0.205 -0.38401,0.0993 -0.196,0.0507 -0.61,0.091 -0.218,0.0108 -0.40801,0.0202 h -0.616 -2.04801 -2.048002 -2.047999 -1.840003 -0.207999 -2.047999 -2.048 -2.047999 -2.048002 -2.047999 -2.048 -2.048002 -2.047999 -2.048 -2.047999 -2.048002 -2.047999 -2.048 -2.047999 -2.048002 -2.047999 -2.048 -2.048002 -2.047996 -2.048004 -2.048 -2.047996 -2.048001 -2.048 -2.048 -0.992001 -1.056 -2.048001 -2.048001 -2.047999 -2.048001 -1.023999 -0.728001 l -0.296001,-0.0147 -0.329999,-0.0163 -0.610001,-0.091 -0.084,-0.0217 -0.496002,-0.12827 -0.528001,-0.20232 -0.007,-0.003 -0.476997,-0.255 -0.408002,-0.29901 -0.327999,-0.33399 -0.139889,-0.211 -0.100113,-0.151 -0.146999,-0.382 -0.049,-0.39099 v -0.1 -1.024 -2.048 -3.326 h 1.655994 0.345001 l 0.156002,-0.009 0.154,-0.028 0.145,-0.045 0.133999,-0.061 0.119001,-0.077 0.102001,-0.089 0.082,-0.101 0.06,-0.108 0.037,-0.115 0.012,-0.117 v -0.02 -1.48 l -0.012,-0.117 -0.037,-0.115 -0.06,-0.108 -0.082,-0.10099 -0.102001,-0.089 -0.05873,-0.038 -0.06027,-0.039 -0.133999,-0.061 -0.145,-0.045 -0.154,-0.028 -0.156003,-0.009 h -0.345001 -1.655999 v -6e-5 -1.86594 -4.096 -1.039 h 1.655999 0.345001 l 0.156002,-0.009 0.154,-0.028 0.145,-0.045 0.133999,-0.061 0.119001,-0.077 0.102001,-0.089 0.082,-0.101 0.06,-0.108 0.037,-0.115 0.012,-0.11701 v -0.25899 -1.24101 l -0.012,-0.11699 -0.037,-0.116 -0.06,-0.108 -0.082,-0.10101 -0.102001,-0.089 -0.119001,-0.077 -0.133999,-0.061 -0.145,-0.045 -0.154,-0.028 -0.156002,-0.009 h -0.345001 -1.655999 v -5e-5 -0.0195 -0.0365 -4.096 -0.848 h 1.655999 0.345001 l 0.156002,-0.009 0.154,-0.028 0.145,-0.045 0.133999,-0.061 0.119001,-0.077 0.102001,-0.089 0.082,-0.101 0.06,-0.10801 0.037,-0.11599 0.012,-0.117 v -0.449 -1.051 l -0.012,-0.117 -0.037,-0.115 -0.06,-0.108 -0.082,-0.101 -0.102001,-0.089 -0.119001,-0.077 -0.133999,-0.061 -0.145,-0.045 -0.154,-0.028 -0.156002,-0.009 h -0.345001 -1.655999 v -6e-5 -0.12553 -0.12141 -4.09601 -2.047994 -0.590458 -0.01954 h 1.655999 0.345001 l 0.156002,-0.009 0.154,-0.028 0.145,-0.045 0.133999,-0.061 0.119001,-0.077 0.102001,-0.089 0.082,-0.100998 0.06,-0.108001 0.037,-0.114998 0.012,-0.117001 v -0.687998 -0.812 l -0.012,-0.117 -0.037,-0.115002 -0.06,-0.107998 -0.082,-0.101002 -0.102001,-0.089 -0.119001,-0.077 -0.133999,-0.061 -0.145,-0.045 -0.154,-0.029 -0.156002,-0.009 h -0.345001 -1.655999 v -2.533004 -4.096001 -0.867996 l 0.01955,-0.155998 0.02945,-0.235001 0.146999,-0.382004 0.240002,-0.361999 0.04419,-0.045 0.28381,-0.289002 0.408002,-0.298996 0.476997,-0.255005 0.007,-0.0027 0.528,-0.202316 0.496003,-0.12828 0.084,-0.02172 0.610001,-0.091 m 3.067003,44.332002 -0.01785,-0.035 -0.160149,-0.314 -0.277,-0.277 -0.349,-0.17801 -0.387001,-0.062 -0.387001,0.062 -0.348999,0.17801 -0.277,0.277 -0.16015,0.314 -0.01785,0.035 -0.062,0.38699 0.062,0.387 0.178003,0.349 0.277,0.277 0.348999,0.178 0.387001,0.061 0.387001,-0.061 0.114998,-0.0587 0.234002,-0.11934 0.277,-0.277 0.178002,-0.349 0.061,-0.387 -0.061,-0.387 m 35.686994,-8.41899 -0.927997,-0.146 -0.928002,0.146 -0.376357,0.19201 -0.109545,0.0559 -0.3511,0.17911 -0.663998,0.664 -0.251,0.49201 -0.176,0.34499 -0.147,0.928 0.147,0.928 0.03775,0.074 0.219366,0.43 0.169881,0.333 0.663999,0.664 0.837001,0.427 0.928002,0.147 0.928,-0.147 0.487997,-0.24895 0.349002,-0.17805 0.664001,-0.664 0.169881,-0.333 0.219366,-0.43 0.03775,-0.074 0.145999,-0.928 -0.145998,-0.928 -0.427001,-0.837 -0.663998,-0.66401 -0.349002,-0.17804 -0.111643,-0.057 -0.376354,-0.19201 m -3.356999,-15.909 -0.388739,0.762 -0.03826,0.075 -0.146998,0.928 0.146998,0.928 0.176,0.345 0.0027,0.005 0.248293,0.4867 0.279265,0.27926 0.0037,0.004 0.381,0.381 0.836999,0.427 0.928002,0.146 0.928,-0.146 0.487997,-0.24895 0.349002,-0.17805 0.381,-0.381 0.283001,-0.283 0.427,-0.83699 0.146,-0.92801 -0.146,-0.92799 -0.03826,-0.075 -0.388737,-0.76201 -0.664001,-0.664 -0.349001,-0.17804 -0.487997,-0.24896 -0.928,-0.146 -0.928002,0.146 -0.837002,0.427 -0.663958,0.66404 m -33.019009,-13.652132 0.234002,-0.119347 0.277,-0.277 0.178002,-0.348999 0.03483,-0.221001 0.02616,-0.166 -0.061,-0.387001 -0.178002,-0.348999 -0.277,-0.277 -0.234002,-0.119347 -0.114998,-0.05866 -0.387001,-0.062 -0.387001,0.062 -0.348999,0.178002 -0.277,0.277 -0.178003,0.348999 -0.062,0.387001 0.02659,0.166 0.0354,0.221001 0.178003,0.348999 0.276999,0.277 0.349,0.178002 0.387001,0.061 0.387001,-0.061 0.114998,-0.05866 m 67.807032,37.980662 -0.061,0.387 0.061,0.387 0.178,0.349 0.277,0.277 0.349,0.178 0.38701,0.061 0.387,-0.061 0.247,-0.12597 0.102,-0.052 0.277,-0.277 0.178,-0.34901 0.062,-0.38699 -0.062,-0.387 -0.0179,-0.035 -0.16015,-0.31401 -0.277,-0.277 -0.102,-0.052 -0.247,-0.12597 -0.38701,-0.062 -0.387,0.062 -0.349,0.17799 -0.277,0.277 -0.16015,0.314 -0.0179,0.035 m 2.38201,-38.725997 0.0354,-0.221001 0.0266,-0.166 -0.062,-0.387001 -0.178,-0.348999 -0.277,-0.277 -0.102,-0.05203 -0.24701,-0.125977 -0.38699,-0.062 -0.38701,0.062 -0.349,0.178002 -0.277,0.277 -0.178,0.348999 -0.061,0.387001 0.0262,0.166 0.0348,0.221001 0.178,0.348999 0.277,0.277 0.349,0.178002 0.38701,0.061 0.38699,-0.061 0.24701,-0.125977 0.102,-0.05203 0.277,-0.277 0.178,-0.348999 m -29.229017,24.568307 -0.015,0.0947 0.015,0.0947 0.132001,0.83331 0.414245,0.812 0.01275,0.025 0.664001,0.664 0.836999,0.427 0.928,0.14599 0.928002,-0.14599 0.074,-0.0378 0.106,-0.0541 0.657,-0.33518 0.664001,-0.664 0.426998,-0.837 0.146002,-0.928 -0.146002,-0.928 -0.426998,-0.837 -0.664001,-0.664 -0.657,-0.33517 -0.106,-0.0541 -0.074,-0.0377 -0.928002,-0.146 -0.928,0.146 -0.836999,0.427 -0.073,0.073 -0.591,0.591 -0.179112,0.3511 -0.247888,0.4859 -0.06194,0.39103 -0.03627,0.22897 -0.03379,0.21331 m -16.868002,-0.83331 -0.146998,0.928 0.146998,0.928 0.427,0.837 0.664001,0.664 0.762,0.38874 0.075,0.0383 0.928003,0.146 0.927997,-0.146 0.796001,-0.40608 0.041,-0.0209 0.664001,-0.66401 0.01275,-0.025 0.414248,-0.812 0.145999,-0.928 -0.145999,-0.928 -0.427001,-0.837 -0.664001,-0.664 -0.041,-0.0209 -0.795999,-0.40608 -0.927999,-0.146 -0.928003,0.146 -0.075,0.0383 -0.762003,0.38873 -0.663993,0.66403 z"
       id="path3684" />
    <g
       id="g3820">
      <path
         id="path3721"
         d="m 112.32817,166.03753 0.008,-0.0729 v -0.002 -0.25735 -1.024 -0.217 l -0.004,-0.0366 -0.008,-0.0714 -1.6e-4,-0.002 -0.0115,-0.0359 -0.0221,-0.071 -0.0185,-0.0335 -0.0378,-0.0677 -0.0255,-0.0314 -0.0508,-0.0618 -0.0318,-0.0279 -0.0425,-0.0372 -0.0207,-0.0181 -0.037,-0.0237 -0.0711,-0.0459 -0.002,-0.002 -0.0415,-0.0188 -0.0827,-0.0384 -0.0454,-0.0143 -0.0898,-0.0273 -0.0478,-0.008 -0.0951,-0.0176 -0.008,-5.3e-4 -0.0406,-0.002 -0.097,-0.005 h -0.34493 -1.656 v -0.006 -0.0256 -0.0767 -4.096 -0.848 -0.001 -0.0192 -8e-5 -0.032 h 1.656 0.345 l 0.0485,-0.003 0.097,-0.005 0.003,-5.5e-4 0.0446,-0.008 0.0951,-0.0176 0.0454,-0.0143 0.0898,-0.0273 0.007,-0.003 0.0344,-0.0156 0.0621,-0.0289 0.0206,-0.01 0.037,-0.0237 0.0732,-0.0473 4e-4,-2.5e-4 0.0318,-0.0279 0.0631,-0.0553 0.0255,-0.0314 0.0508,-0.0619 0.001,-0.002 0.0172,-0.0315 0.0378,-0.0677 10e-4,-0.003 0.0104,-0.0322 0.022,-0.0705 1.3e-4,-4.3e-4 0.004,-0.0366 0.008,-0.0729 v -0.44887 -1.024 -0.027 l -0.004,-0.0366 -0.008,-0.0714 -1.6e-4,-0.001 -0.0115,-0.0356 -0.0221,-0.0703 -0.0185,-0.0335 -0.0378,-0.0677 -0.0255,-0.0314 -0.0508,-0.0618 -0.0318,-0.0279 -0.0425,-0.0372 -0.0207,-0.0181 -0.037,-0.0237 -0.0711,-0.0459 -0.003,-0.002 -0.0416,-0.0188 -0.0827,-0.0384 -0.0454,-0.0143 -0.0898,-0.0273 -0.0478,-0.008 -0.0951,-0.0176 -0.008,-4.5e-4 -0.0406,-0.002 -0.097,-0.005 h -0.34493 -1.65351 -0.002 v -0.006 -0.0256 -0.2677 -4.096 -2.048 -0.65627 -0.006 h 1.656 0.34151 0.004 l 0.0485,-0.003 0.097,-0.005 0.0478,-0.008 0.0909,-0.0168 0.004,-7.7e-4 0.0454,-0.0143 0.0898,-0.0273 0.0415,-0.0188 0.0827,-0.0384 0.037,-0.0237 0.0732,-0.0473 4e-4,-2.6e-4 0.0207,-0.0182 0.0111,-0.01 0.062,-0.0544 0.001,-9.8e-4 0.0255,-0.0314 0.0349,-0.0425 0.0147,-0.0179 10e-4,-0.001 0.0185,-0.0339 0.0378,-0.0677 0.0115,-0.0352 0.022,-0.0699 1.3e-4,-4.2e-4 0.004,-0.0366 0.008,-0.0729 v -0.688 -0.812 l -0.004,-0.0366 -0.008,-0.0729 -0.0115,-0.0356 -0.021,-0.0669 -0.001,-0.004 -0.0185,-0.0335 -0.0378,-0.0677 -0.0255,-0.0314 -0.0508,-0.0618 -0.0318,-0.0279 -0.0425,-0.0372 -0.0207,-0.0181 -0.037,-0.0237 -0.0736,-0.0475 -0.002,-7.9e-4 -0.0398,-0.018 -0.0827,-0.0384 -0.006,-0.002 -0.0389,-0.0123 -0.0898,-0.0273 -0.0478,-0.008 -0.0951,-0.0176 -0.008,-4.5e-4 -0.0406,-0.002 -0.097,-0.005 h -0.34497 -1.656 v -0.006 -0.0269 -0.0207 -2.53297 -4.096 -0.86799 l 0.0196,-0.156 0.0294,-0.235 0.1066,-0.277 0.0404,-0.10501 0.24,-0.36199 0.0442,-0.045 0.15181,-0.15459 0.132,-0.13442 0.30429,-0.223 0.10371,-0.076 0.477,-0.255 0.007,-0.003 0.46536,-0.17832 0.0626,-0.024 0.496,-0.12828 0.084,-0.0217 0.61001,-0.091 0.32999,-0.0163 0.29601,-0.0146 h 1.752 2.048 2.048 2.048 2.048 1.056 0.992 2.048 2.048 2.048 2.04801 2.04801 2.04801 2.04801 2.04802 2.04801 2.04801 2.04801 2.04801 2.04801 2.04801 2.04802 2.04801 2.04801 2.04801 2.04801 2.04801 2.04802 2.04801 2.04801 2.04801 2.04801 0.208 1.84002 2.04801 2.04801 2.04801 0.616 l 0.40801,0.0202 0.21799,0.0108 0.61001,0.091 0.196,0.0507 0.384,0.0993 0.0626,0.024 0.47237,0.181 0.105,0.0561 0.372,0.19886 0.10371,0.076 0.30429,0.223 0.24401,0.24847 0.0398,0.0405 0.0442,0.045 0.24,0.362 0.0404,0.105 0.1066,0.277 0.0294,0.235 0.0196,0.15601 v 0.86799 4.096 2.53301 0.0475 6e-5 0.006 6e-5 h -0.51999 -1.48101 l -0.0485,0.003 -0.097,0.005 -0.003,5.5e-4 -0.0446,0.008 -0.0951,0.0176 -0.0454,0.0143 -0.0898,0.0273 -0.007,0.003 -0.0344,0.0156 -0.0827,0.0384 -0.0192,0.0123 -0.0178,0.0114 -0.0742,0.0475 -2.7e-4,3.2e-4 -0.0314,0.0276 -0.0614,0.0543 -10e-4,0.001 -0.0255,0.0314 -0.0508,0.0618 -0.0185,0.0335 -0.0378,0.0677 -5.3e-4,0.002 -0.011,0.0339 -0.0221,0.0703 -0.004,0.0366 -0.008,0.0729 v 0.002 0.81034 0.688 l 0.004,0.0366 0.008,0.0729 0.0115,0.0352 0.0221,0.0703 0.002,0.004 0.0164,0.03 0.0378,0.0677 0.0255,0.0314 0.0508,0.0618 0.0318,0.0279 0.0625,0.0553 0.002,0.001 0.0353,0.0227 0.055,0.0352 0.0192,0.0123 0.0415,0.0188 0.0827,0.0384 0.006,0.002 0.0389,0.0123 0.0859,0.0262 0.004,0.001 0.0478,0.008 0.0951,0.0176 0.0485,0.003 0.097,0.005 h 1.48102 0.51751 0.002 v 6e-5 0.006 9.3e-4 0.65535 2.04799 4.09601 0.23847 0.036 0.0185 0.007 5e-5 h -0.52 -1.47753 -0.004 l -0.0485,0.003 -0.097,0.005 -0.0478,0.008 -0.0951,0.0176 -0.0454,0.0143 -0.0898,0.0273 -0.007,0.003 -0.0344,0.0156 -0.0824,0.0383 -2.4e-4,1.2e-4 -0.0192,0.0123 -0.0178,0.0114 -0.0742,0.0475 -0.0318,0.0279 -0.0614,0.0543 -0.001,0.001 -0.0255,0.0314 -0.0502,0.0611 -5.3e-4,7.1e-4 -0.0185,0.0335 -0.0378,0.0677 -0.0115,0.0356 -0.0221,0.0703 -0.004,0.0366 -0.008,0.0729 v 0.002 1.04935 0.449 l 0.004,0.0366 0.008,0.0729 0.0115,0.0356 0.0221,0.071 0.002,0.004 0.0165,0.0302 0.0378,0.0677 0.0255,0.0314 0.0508,0.0619 0.0318,0.0279 0.0625,0.0553 0.002,10e-4 0.0353,0.0227 0.055,0.0352 0.0192,0.0123 0.0415,0.0188 0.0827,0.0384 0.006,0.002 0.0389,0.0123 0.0898,0.0273 0.0478,0.008 0.0951,0.0176 0.008,4.5e-4 0.0406,0.002 0.097,0.005 h 1.48104 0.52 v 0.007 8.7e-4 0.89335 4.09599 0.0449 0.0573 0.006 6e-5 h -0.52 -1.48101 l -0.0485,0.003 -0.097,0.005 -0.003,5.3e-4 -0.0446,0.008 -0.0951,0.0176 -0.0454,0.0143 -0.0898,0.0273 -0.007,0.003 -0.0344,0.0156 -0.0824,0.0383 -2.4e-4,1.1e-4 -0.0192,0.0123 -0.0178,0.0114 -0.0742,0.0475 -0.0318,0.0279 -0.0625,0.0553 -0.0255,0.0314 -0.0502,0.0611 -5.3e-4,7.9e-4 -0.0185,0.0335 -0.0378,0.0677 -0.0115,0.0359 -0.022,0.0705 -1.3e-4,5.3e-4 -0.004,0.0366 -0.008,0.0729 v 1.24101 0.25899 l 0.004,0.0366 0.008,0.0729 0.0115,0.0352 0.0221,0.0703 0.002,0.004 0.0164,0.03 0.0378,0.0677 0.0255,0.0314 0.0508,0.0618 0.0318,0.0279 0.0625,0.0553 0.002,0.001 0.0353,0.0227 0.055,0.0352 0.0167,0.0107 0.002,0.002 0.0415,0.0188 0.0827,0.0384 0.0454,0.0143 0.0859,0.0261 0.004,10e-4 0.0478,0.008 0.0951,0.0176 0.0485,0.003 0.097,0.005 h 1.48106 0.51751 0.002 v 6e-5 0.006 0.001 0.0603 1.024 4.096 1.79133 0.12088 6e-5 0.006 6e-5 h -0.52 -1.48101 l -0.0485,0.003 -0.097,0.005 -0.003,5.2e-4 -0.0446,0.008 -0.0951,0.0176 -0.0454,0.0143 -0.0898,0.0273 -0.007,0.003 -0.0344,0.0156 -0.075,0.0349 -0.007,0.004 -2.5e-4,1.2e-4 -0.0192,0.0123 -0.0178,0.0114 -0.0742,0.0475 -0.0318,0.0279 -0.0614,0.0543 -10e-4,0.001 -0.0255,0.0314 -0.0508,0.0618 -0.0185,0.0335 -0.0378,0.0677 -5.3e-4,0.002 -0.011,0.0339 -0.0221,0.0703 -0.004,0.0366 -0.008,0.0729 v 0.002 1.47834 0.02 l 0.004,0.0366 0.008,0.0714 1.6e-4,0.002 0.0115,0.0356 0.0221,0.0703 0.0185,0.0335 0.0378,0.0677 0.0255,0.0314 0.0502,0.0611 5.3e-4,7.9e-4 0.0318,0.0279 0.0625,0.0553 0.037,0.0237 0.055,0.0352 0.0192,0.0123 0.0415,0.0188 0.0827,0.0384 0.006,0.002 0.0389,0.0123 0.0859,0.0261 0.004,0.001 0.0478,0.008 0.0951,0.0176 0.0485,0.003 0.097,0.005 h 1.48099 0.51751 0.002 v 0.006 0.001 0.0454 3.326 2.048 1.024 0.1 l -0.049,0.391 -0.008,0.021 -0.13892,0.361 -0.10011,0.151 -0.13989,0.211 -0.084,0.0855 -0.2116,0.21546 -0.0324,0.033 -0.408,0.299 -0.33671,0.18001 -0.0353,0.0189 -0.105,0.0561 -0.535,0.205 -0.38401,0.0993 -0.19599,0.0507 -0.316,0.0471 -0.29401,0.0439 -0.21799,0.0108 -0.40798,0.0197 h -0.616 -2.04802 -2.04801 -2.04801 -1.84001 -0.208 -2.04801 -2.04801 -2.04801 -2.04802 -2.04801 -2.04801 -2.04801 -2.04801 -2.04801 -2.04802 -2.04801 -2.04801 -2.04801 -2.04801 -2.04801 -2.04802 -2.04801 -2.04801 -2.04801 -2.04802 -2.04801 -2.048 -2.048 -2.048 -2.048 -0.992 -1.056 -2.04794 -2.048 -2.048 -2.048 -1.024 -0.728 l -0.296,-0.0147 -0.33,-0.0164 -0.182,-0.0271 -0.428,-0.0639 -0.084,-0.0217 -0.496,-0.12828 -0.528,-0.20232 -0.007,-0.003 -0.14029,-0.075 -0.33671,-0.18 -0.408,-0.299 -0.0324,-0.033 -0.0996,-0.10141 -0.196,-0.19959 -0.13988,-0.211 -0.10012,-0.15099 -0.13892,-0.361 -0.008,-0.021 -0.049,-0.39099 v -0.1 -1.024 -2.048 -3.326 -0.0207 -2e-5 -0.0255 -6e-5 -0.006 h 1.656 0.34151 0.004 l 0.0485,-0.003 0.097,-0.005 0.0478,-0.008 0.0909,-0.0168 0.004,-7.9e-4 0.0454,-0.0143 0.0898,-0.0273 0.0415,-0.0188 0.0827,-0.0384 0.037,-0.0237 0.0732,-0.0473 4e-4,-2.6e-4 0.0207,-0.0181 0.0111,-0.01 0.0632,-0.0553 0.0255,-0.0314 0.0502,-0.0611 5.8e-4,-7.9e-4 0.0185,-0.0335 0.0378,-0.0677 0.0115,-0.0356 0.022,-0.0699 1.3e-4,-5.3e-4 0.004,-0.0366 0.008,-0.0729 v -0.02 -1.48 l -0.004,-0.0366 -0.008,-0.0714 -1.6e-4,-0.002 -0.0115,-0.0356 -0.0221,-0.0703 -0.0185,-0.0335 -0.0378,-0.0677 -0.0255,-0.0314 -0.0508,-0.0618 -0.0318,-0.0279 -0.0632,-0.0553 -0.037,-0.0237 -0.0736,-0.0475 -0.002,-7.9e-4 -0.006,-0.003 -0.0337,-0.0153 -0.0827,-0.0384 -0.0454,-0.0143 -0.0898,-0.0273 -0.0478,-0.008 -0.0951,-0.0176 -0.008,-5.3e-4 -0.0406,-0.002 -0.097,-0.005 h -0.34451 -1.656 v -0.006 -1.91227 -4.096 -1.039 -0.0207 -2e-5 -0.0255 -6e-5 -0.006 h 1.656 0.34151 0.004 l 0.0485,-0.003 0.097,-0.005 0.0478,-0.008 0.0909,-0.0168 0.004,-8e-4 0.0454,-0.0143 0.0898,-0.0273 0.0415,-0.0188 0.0827,-0.0384 0.037,-0.0237 0.0732,-0.0473 4e-4,-2.5e-4 0.0207,-0.0181 0.0111,-0.01 0.0632,-0.0553 0.0255,-0.0314 0.0496,-0.0604 0.001,-0.001 0.0185,-0.0339 0.0378,-0.0677 0.0115,-0.0352 0.0221,-0.0703 0.004,-0.0366 m 42.1769,-23.1154 0.0748,0.25499 0.0182,0.062 0.031,0.389 -0.031,0.39 -0.053,0.183 -0.04,0.138 -0.155,0.25 -0.22801,0.177 -0.054,0.0188 -0.251,0.0872 -0.381,0.036 -0.383,-0.036 -0.303,-0.106 -0.222,-0.177 -0.155,-0.25 -0.093,-0.321 -0.031,-0.39 0.031,-0.389 0.0182,-0.062 0.0748,-0.25499 0.155,-0.24501 0.228,-0.17499 0.305,-0.105 0.381,-0.035 0.38401,0.035 0.24199,0.0841 0.06,0.0209 0.22201,0.17499 0.155,0.245 m -2.33021,-0.67549 -0.14381,0.10649 -0.011,0.0109 -0.149,0.14714 -0.135,0.18 -0.11,0.201 -0.084,0.226 -0.0123,0.059 -0.0387,0.186 -0.016,0.265 0.015,0.268 0.046,0.247 0.078,0.226 0.10501,0.206 0.132,0.183 0.15599,0.159 0.013,0.01 0.11863,0.0866 0.0534,0.0389 0.1778,0.0957 0.0302,0.0163 0.15833,0.061 0.0727,0.028 0.253,0.063 0.274,0.037 0.296,0.013 0.272,-0.013 0.258,-0.037 0.084,-0.0216 0.161,-0.0414 0.0717,-0.028 0.15627,-0.061 0.205,-0.112 0.185,-0.135 0.16,-0.159 0.136,-0.183 0.10623,-0.20076 0.003,-0.005 0.0602,-0.168 0.0208,-0.058 0.048,-0.247 0.017,-0.268 -0.015,-0.265 -0.0342,-0.186 -0.0109,-0.059 -0.074,-0.226 -0.105,-0.201 -0.131,-0.18 -0.157,-0.158 -0.18201,-0.137 -0.208,-0.112 -0.23399,-0.087 -0.008,-0.002 -0.17089,-0.0439 -0.074,-0.019 -0.274,-0.039 -0.296,-0.013 -0.272,0.013 -0.258,0.039 -0.24501,0.065 -0.227,0.087 -0.0901,0.049 -0.11587,0.063 -0.0412,0.0305 m 4.12671,-0.19783 -0.007,0.10433 -2.1e-4,0.003 0.012,0.183 0.039,0.178 0.064,0.17299 0.092,0.16401 0.12601,0.149 0.157,0.136 0.0581,0.038 0.12991,0.085 0.22601,0.104 0.264,0.087 0.308,0.065 0.351,0.039 0.394,0.013 h 0.612 v 1.73298 h 0.763 v -2.126 -0.0553 -0.0317 -1.756 -0.484 h -1.48401 l -0.242,0.007 -0.108,0.003 -0.317,0.03 -0.283,0.049 -0.248,0.066 -0.217,0.084 -0.0741,0.04 -0.11489,0.062 -0.158,0.11901 -0.12454,0.13337 -0.002,0.003 -0.096,0.153 -0.0394,0.0953 -0.0316,0.0766 -0.042,0.18499 -0.007,0.0927 m 2.30449,1.04133 -0.243,-0.006 -0.199,-0.0145 -0.021,-0.002 -0.197,-0.028 -0.178,-0.039 -0.155,-0.053 -0.133,-0.065 -0.114,-0.079 -0.093,-0.092 -0.071,-0.107 -0.054,-0.125 -0.008,-0.0353 -0.024,-0.10575 -0.011,-0.156 0.004,-0.03 0.0328,-0.232 0.111,-0.213 0.185,-0.163 0.264,-0.11701 0.347,-0.07 0.115,-0.006 0.315,-0.0176 h 0.64801 v 1.75599 h -0.521 m -11.29105,-0.036 0.0263,0.123 0.008,0.036 0.02,0.174 0.007,0.187 v 1.729 h 0.548 0.197 v -2.126 -1.219 h -0.19696 -0.409 l -0.0113,0.0471 -0.0154,0.0641 -0.0164,0.0683 -0.004,0.0155 -0.0512,0.21341 -0.007,0.0301 -0.004,0.0155 h -0.0193 -0.0168 l -0.074,-0.083 -0.082,-0.075 -0.083,-0.0604 -0.009,-0.007 -0.0559,-0.034 -0.0411,-0.025 -0.103,-0.054 -0.10901,-0.048 -0.11499,-0.039 -0.11901,-0.031 -0.123,-0.025 -0.127,-0.017 -0.129,-0.01 -0.132,-0.004 -0.192,0.0134 -0.267,0.0186 -0.378,0.098 -0.295,0.162 -0.21201,0.233 -0.12699,0.31001 -0.004,0.0389 -0.0378,0.34711 v 0.056 2.126 h 0.75 v -2.126 -0.025 l 0.025,-0.24101 0.072,-0.19699 0.121,-0.154 0.169,-0.11 0.184,-0.0542 0.04,-0.0118 0.279,-0.022 0.21101,0.009 0.188,0.027 0.164,0.045 0.14,0.06 0.002,0.001 0.119,0.0767 0.103,0.096 0.08,0.109 0.065,0.126 0.048,0.142 m -4.95217,-0.69598 v 0.819 1.024 0.11 l -0.014,0.181 -0.042,0.15 -0.071,0.118 -0.107,0.082 -0.143,0.049 -0.18,0.017 -0.026,-5e-4 -0.025,-4.8e-4 -0.057,-10e-4 -0.061,-0.003 -0.06,-0.006 -0.059,-0.006 -0.057,-0.006 -0.058,-0.006 -0.052,-0.006 -0.047,-0.006 -0.0131,-0.002 -0.0329,-0.006 -0.038,-0.008 -0.031,-0.006 v 0.38001 0.042 l 0.039,0.014 0.0362,0.009 0.0108,0.003 0.053,0.01 0.055,0.011 0.06,0.011 0.13199,0.018 0.069,0.007 0.071,0.007 0.065,0.005 0.004,2.9e-4 0.068,0.003 0.069,0.001 0.166,-0.006 0.157,-0.016 0.149,-0.028 0.139,-0.038 0.1183,-0.053 0.007,-0.003 0.11199,-0.072 0.035,-0.0312 0.066,-0.0588 0.084,-0.107 0.069,-0.126 0.047,-0.14901 0.028,-0.17199 0.01,-0.195 v -0.11 -1.024 -0.819 h 0.20761 0.4274 v -0.238 l -0.63501,-0.224 -0.315,-0.701 h -0.42975 v 0.763 h -1.13734 v 0.4 h 1.13797 m 22.6001,0.682 -0.178,-0.039 -0.156,-0.053 -0.132,-0.065 -0.114,-0.079 -0.075,-0.0742 -0.018,-0.0178 -0.072,-0.107 -0.053,-0.125 -0.033,-0.141 -0.01,-0.156 0.004,-0.03 0.0328,-0.232 0.111,-0.21299 0.038,-0.0335 0.147,-0.12952 0.263,-0.11701 0.34701,-0.07 0.431,-0.024 h 0.648 v 1.756 h -0.521 l -0.243,-0.006 -0.22001,-0.016 -0.197,-0.028 m -33.06232,-0.88701 v 1.02399 2.12601 h 0.721 v -2.12599 -0.93599 l -9e-4,-0.088 -1.1e-4,-0.011 -0.002,-0.098 -0.003,-0.099 -0.004,-0.097 -0.004,-0.095 -0.004,-0.091 -9.8e-4,-0.021 -0.003,-0.065 -0.004,-0.079 -0.002,-0.0389 -7.7e-4,-0.0139 -4.2e-4,-0.008 -2.5e-4,-0.005 -3.7e-4,-0.007 -6e-5,-0.001 0.045,0.035 0.041,0.031 0.035,0.029 0.036,0.026 0.0124,0.009 0.0236,0.0164 0.037,0.025 0.04,0.024 0.0339,0.022 0.006,0.004 0.041,0.026 0.043,0.029 0.048,0.031 0.054,0.034 0.5,0.30363 0.10601,0.0644 0.393,-0.372 -0.49901,-0.28991 -0.58879,-0.34209 -0.48021,-0.279 h -0.61781 v 0.279 1.024 m 4.69701,2.142 -0.0366,-0.094 -0.005,-0.014 -0.041,-0.105 -0.039,-0.10101 -0.034,-0.087 -0.03,-0.073 -0.28242,-0.644 -0.49358,-1.12551 -0.041,-0.0935 h -0.775 l 0.14423,0.31266 0.41808,0.90634 0.25369,0.54997 0.21867,0.47403 0.47236,1.024 0.036,0.078 h 0.945 l 0.0359,-0.078 0.13335,-0.29 0.20679,-0.44976 0.60152,-1.30824 0.56049,-1.219 h -0.76901 l -0.53524,1.219 -0.28276,0.644 -0.0224,0.0528 -0.009,0.0202 -0.036,0.087 -0.042,0.10101 -0.04,0.10499 -0.005,0.014 -0.0348,0.094 -0.041,0.11 -0.039,0.106 -0.039,0.103 -0.037,0.101 -0.029,0.088 -0.022,0.073 -0.015,0.059 h -0.011 -0.008 -0.004 -0.002 -0.004 -0.003 l -0.015,-0.059 -0.022,-0.073 -0.029,-0.088 -0.034,-0.101 -0.036,-0.103 -0.021,-0.0571 -0.018,-0.0489 -0.044,-0.11 m 23.0961,20.909 -0.27901,-0.14201 -0.309,-0.049 -0.309,0.049 -0.279,0.14201 -0.221,0.221 -0.142,0.279 -1.6e-4,10e-4 -0.0488,0.30799 0.049,0.30901 0.142,0.279 0.221,0.221 0.279,0.14199 0.309,0.049 0.30901,-0.049 0.279,-0.14199 0.221,-0.221 0.142,-0.279 0.049,-0.30901 -0.0488,-0.30799 -1.6e-4,-10e-4 -0.142,-0.279 -0.22097,-0.22102 m -46.05312,14.523 -0.16015,0.314 -0.0179,0.035 -0.062,0.387 0.062,0.387 0.178,0.349 0.277,0.277 0.349,0.178 0.387,0.061 0.387,-0.061 0.115,-0.0587 0.234,-0.11934 0.277,-0.277 0.17801,-0.34901 0.061,-0.38699 -0.061,-0.387 -0.0178,-0.035 -0.16015,-0.314 -0.277,-0.277 -0.349,-0.17801 -0.387,-0.062 -0.387,0.062 -0.349,0.17801 -0.277,0.277 m 1.4,-37.573 0.115,-0.0587 0.234,-0.11935 0.277,-0.277 0.178,-0.349 0.0348,-0.221 0.0262,-0.166 -0.061,-0.387 -0.178,-0.349 -0.277,-0.277 -0.234,-0.11935 -0.115,-0.0587 -0.387,-0.062 -0.387,0.062 -0.349,0.17801 -0.277,0.277 -0.17801,0.34899 -0.062,0.38701 0.0266,0.166 0.0354,0.221 0.17801,0.349 0.277,0.277 0.349,0.178 0.387,0.061 0.387,-0.061 m 47.17213,-0.984 0.005,-0.041 0.009,-0.068 -0.014,-0.112 -0.043,-0.088 -0.07,-0.065 -0.089,-0.048 -0.103,-0.028 -0.117,-0.009 -0.043,0.002 -0.016,5.3e-4 -0.057,0.007 -0.054,0.013 -0.05,0.015 -0.047,0.021 -0.042,0.027 -0.038,0.03 -0.032,0.036 -0.027,0.042 -0.017,0.045 -0.01,0.052 -0.003,0.06 0.009,0.068 0.005,0.038 0.042,0.087 0.071,0.067 0.091,0.047 0.103,0.029 0.11499,0.009 0.117,-0.009 0.103,-0.027 0.089,-0.045 0.07,-0.067 0.043,-0.088 m 3.21003,-0.32 -0.35001,0.01 -0.317,0.03 -0.283,0.049 -0.165,0.0439 -0.083,0.0221 -0.218,0.084 -0.0737,0.04 -0.11428,0.062 -0.158,0.119 -0.127,0.136 -0.097,0.153 -0.07,0.172 -0.043,0.185 -0.0138,0.197 -2.1e-4,0.003 0.013,0.183 0.038,0.178 0.064,0.173 0.093,0.164 0.125,0.149 0.158,0.13601 0.0581,0.038 0.12992,0.085 0.226,0.10399 0.093,0.0307 0.171,0.0564 0.308,0.065 0.351,0.039 0.39401,0.013 h 0.61202 v 1.73296 h 0.762 v -2.126 -2.327 h -0.55 -0.93301 m -13.86806,16.97 0.0487,-0.307 2.6e-4,-0.002 -0.049,-0.309 -0.142,-0.279 -0.221,-0.221 -0.279,-0.142 -0.309,-0.05 -0.309,0.05 -0.27901,0.142 -0.044,0.044 -0.177,0.17699 -0.142,0.279 -0.049,0.30901 0.049,0.30899 0.142,0.27901 0.177,0.177 0.044,0.044 0.27901,0.142 0.309,0.049 0.309,-0.049 0.279,-0.142 0.221,-0.221 0.142,-0.279 m 31.40817,22.256 -0.061,0.387 0.061,0.387 0.178,0.349 0.277,0.277 0.349,0.178 0.387,0.061 0.38701,-0.061 0.247,-0.12598 0.102,-0.052 0.277,-0.277 0.178,-0.349 0.062,-0.387 -0.062,-0.387 -0.0179,-0.035 -0.16015,-0.314 -0.27701,-0.277 -0.10199,-0.052 -0.247,-0.12598 -0.38701,-0.062 -0.387,0.062 -0.349,0.178 -0.277,0.277 -0.16015,0.314 -0.0179,0.035 m -39.86121,-14.063 -0.0488,-0.308 -1.6e-4,-0.001 -0.142,-0.279 -0.221,-0.221 -0.279,-0.142 -0.309,-0.049 -0.309,0.049 -0.27899,0.142 -0.221,0.221 -0.142,0.279 -1.6e-4,0.001 -0.0498,0.308 0.05,0.309 0.142,0.279 0.221,0.221 0.27899,0.142 0.309,0.049 0.30901,-0.049 0.27899,-0.142 0.221,-0.221 0.142,-0.279 0.049,-0.309 m 39.86121,-25.437 -0.061,0.387 0.0262,0.166 0.0348,0.221 0.178,0.349 0.277,0.277 0.349,0.178 0.387,0.061 0.387,-0.061 0.24701,-0.12597 0.102,-0.052 0.277,-0.277 0.178,-0.349 0.0354,-0.221 0.0266,-0.166 -0.062,-0.38701 -0.178,-0.34899 -0.277,-0.277 -0.102,-0.052 -0.24701,-0.12598 -0.387,-0.062 -0.387,0.062 -0.349,0.178 -0.277,0.277 -0.178,0.349 m -32.94718,33.13 -0.044,0.044 -0.177,0.177 -0.142,0.279 -0.049,0.309 0.049,0.309 0.142,0.279 0.177,0.177 0.044,0.044 0.27901,0.142 0.309,0.049 0.309,-0.049 0.279,-0.142 0.221,-0.221 0.142,-0.279 0.049,-0.309 -0.049,-0.309 -0.142,-0.279 -0.03,-0.03 -0.191,-0.19099 -0.279,-0.142 -0.309,-0.049 -0.309,0.049 -0.27901,0.142 m -0.364,-32.937 -0.042,0.027 -0.038,0.03 -0.032,0.036 -0.027,0.042 -0.017,0.045 -0.01,0.052 -0.003,0.06 0.009,0.068 0.005,0.038 0.042,0.087 0.071,0.067 0.091,0.047 0.103,0.029 0.115,0.009 0.053,-0.004 0.064,-0.005 0.103,-0.027 0.088,-0.045 0.071,-0.067 0.042,-0.088 0.005,-0.041 0.009,-0.068 -0.014,-0.112 -0.042,-0.088 -0.071,-0.065 -0.088,-0.048 -0.103,-0.028 -0.064,-0.005 -0.053,-0.004 -0.06,0.002 -0.056,0.007 -0.054,0.013 -0.05,0.015 -0.047,0.021 m -0.103,1.18901 v 1.21899 2.126 h 0.74501 v -2.12601 -1.219 h -0.32197 -0.423 m 11.87206,0 v 1.219 2.126 h 0.745 v -2.126 -1.219 h -0.33804 -0.3893 z"
         style="fill:none;stroke:#0000ff;stroke-width:0.01mm"
         inkscape:connector-curvature="0" />
    </g>
    <path
       inkscape:connector-curvature="0"
       style="fill:none;stroke:#0000ff;stroke-width:0.01mm"
       d="m 30.433067,166.03652 0.008,-0.0729 v -0.002 -0.25735 -1.02401 -0.217 l -0.004,-0.0366 -0.008,-0.0714 -1.6e-4,-0.002 -0.0115,-0.0359 -0.0221,-0.071 -0.0185,-0.0335 -0.0378,-0.0677 -0.0255,-0.0314 -0.0508,-0.0618 -0.0318,-0.0279 -0.0425,-0.0372 -0.0207,-0.0181 -0.037,-0.0237 -0.0711,-0.0459 -0.002,-0.002 -0.0415,-0.0188 -0.0827,-0.0384 -0.0454,-0.0143 -0.0898,-0.0273 -0.0478,-0.008 -0.0951,-0.0176 -0.008,-5.2e-4 -0.0406,-0.002 -0.097,-0.005 h -0.34493 -1.656 v -0.006 -0.0256 -0.0767 -4.09601 -0.848 -0.001 -0.0192 -8e-5 -0.032 h 1.656 0.345 l 0.0485,-0.003 0.097,-0.005 0.003,-5.5e-4 0.0446,-0.008 0.0951,-0.0176 0.0454,-0.0143 0.0898,-0.0273 0.007,-0.003 0.0344,-0.0156 0.0621,-0.0289 0.0206,-0.01 0.037,-0.0237 0.0732,-0.0473 4e-4,-2.5e-4 0.0318,-0.0279 0.0631,-0.0553 0.0255,-0.0314 0.0508,-0.0619 0.001,-0.002 0.0172,-0.0315 0.0378,-0.0677 10e-4,-0.003 0.0104,-0.0322 0.022,-0.0705 1.3e-4,-4.2e-4 0.004,-0.0366 0.008,-0.0729 v -0.44887 -1.024 -0.027 l -0.004,-0.0366 -0.008,-0.0714 -1.6e-4,-0.001 -0.0115,-0.0356 -0.0221,-0.0703 -0.0185,-0.0335 -0.0378,-0.0677 -0.0255,-0.0314 -0.0508,-0.0618 -0.0318,-0.0279 -0.0425,-0.0372 -0.0207,-0.0181 -0.037,-0.0237 -0.0711,-0.0459 -0.003,-0.002 -0.0416,-0.0188 -0.0827,-0.0384 -0.0454,-0.0143 -0.0898,-0.0273 -0.0478,-0.008 -0.0951,-0.0176 -0.008,-4.5e-4 -0.0406,-0.002 -0.097,-0.005 h -0.34494 -1.65351 -0.002 v -0.006 -0.0256 -0.2677 -4.096 -2.048 -0.65627 -0.006 h 1.656 0.34151 0.004 l 0.0485,-0.003 0.097,-0.005 0.0478,-0.008 0.0909,-0.0168 0.004,-7.7e-4 0.0454,-0.0143 0.0898,-0.0273 0.0415,-0.0188 0.0827,-0.0384 0.037,-0.0237 0.0732,-0.0473 3.9e-4,-2.6e-4 0.0207,-0.0182 0.0111,-0.01 0.062,-0.0544 0.001,-9.8e-4 0.0255,-0.0314 0.0349,-0.0425 0.0147,-0.0179 0.001,-0.001 0.0185,-0.0339 0.0378,-0.0677 0.0115,-0.0352 0.022,-0.0699 1.3e-4,-4.2e-4 0.004,-0.0366 0.008,-0.0729 v -0.688 -0.812 l -0.004,-0.0366 -0.008,-0.0729 -0.0115,-0.0356 -0.021,-0.0669 -0.001,-0.004 -0.0185,-0.0335 -0.0378,-0.0677 -0.0255,-0.0314 -0.0508,-0.0618 -0.0318,-0.0279 -0.0425,-0.0372 -0.0207,-0.0181 -0.037,-0.0237 -0.0736,-0.0475 -0.002,-8e-4 -0.0398,-0.018 -0.0827,-0.0384 -0.006,-0.002 -0.0389,-0.0123 -0.0898,-0.0273 -0.0478,-0.008 -0.0951,-0.0176 -0.008,-4.5e-4 -0.0406,-0.002 -0.097,-0.005 h -0.34498 -1.656 v -0.005 -0.0269 -0.0207 -2.53297 -4.096 -0.86799 l 0.0196,-0.156 0.0294,-0.235 0.1066,-0.277 0.0404,-0.10501 0.24,-0.36199 0.0442,-0.045 0.15181,-0.15459 0.132,-0.13442 0.30429,-0.223 0.10371,-0.076 0.477,-0.255 0.007,-0.003 0.46536,-0.17832 0.0626,-0.024 0.496,-0.12828 0.084,-0.0217 0.61001,-0.091 0.32999,-0.0163 0.29601,-0.0146 h 1.752 2.048 2.048 2.048 2.048 1.056 0.992 2.048 2.048 2.048 2.04801 2.04801 2.04801 2.04801 2.04802 2.04801 2.04801 2.04801 2.04801 2.04801 2.04801 2.04802 2.04801 2.04801 2.04801 2.04801 2.04801 2.04802 2.04801 2.04801 2.04801 2.04801 0.208 1.84002 2.04801 2.048013 2.04801 0.616 l 0.40801,0.0202 0.21799,0.0108 0.61001,0.091 0.196,0.0507 0.384,0.0993 0.0626,0.024 0.47237,0.181 0.105,0.0561 0.372,0.19886 0.10371,0.076 0.30429,0.223 0.24401,0.24847 0.0398,0.0405 0.0442,0.045 0.24,0.362 0.0404,0.105 0.1066,0.277 0.0294,0.235 0.0196,0.15601 v 0.86799 4.096 2.53301 0.0475 6e-5 0.006 6e-5 h -0.51999 -1.48101 l -0.0485,0.003 -0.097,0.005 -0.003,5.6e-4 -0.0446,0.008 -0.0951,0.0176 -0.0454,0.0143 -0.0898,0.0273 -0.007,0.003 -0.0344,0.0156 -0.0827,0.0384 -0.0192,0.0123 -0.0178,0.0114 -0.0742,0.0475 -2.6e-4,3.2e-4 -0.0314,0.0276 -0.0614,0.0543 -10e-4,0.001 -0.0255,0.0314 -0.0508,0.0618 -0.0185,0.0335 -0.0378,0.0677 -5.3e-4,0.002 -0.011,0.0339 -0.0221,0.0703 -0.004,0.0366 -0.008,0.0729 v 0.002 0.81034 0.688 l 0.004,0.0366 0.008,0.0729 0.0115,0.0352 0.0221,0.0703 0.002,0.004 0.0164,0.03 0.0378,0.0677 0.0255,0.0314 0.0508,0.0618 0.0318,0.0279 0.0625,0.0553 0.002,0.001 0.0353,0.0227 0.055,0.0352 0.0192,0.0123 0.0415,0.0188 0.0827,0.0384 0.006,0.002 0.0389,0.0123 0.0859,0.0262 0.004,0.001 0.0478,0.008 0.0951,0.0176 0.0485,0.003 0.097,0.005 h 1.48102 0.51751 0.002 v 6e-5 0.006 9.2e-4 0.65535 2.04799 4.09601 0.23847 0.036 0.0185 0.007 5e-5 h -0.52 -1.47753 -0.004 l -0.0485,0.003 -0.097,0.005 -0.0478,0.008 -0.0951,0.0176 -0.0454,0.0143 -0.0898,0.0273 -0.007,0.003 -0.0344,0.0156 -0.0824,0.0383 -2.4e-4,1.2e-4 -0.0192,0.0123 -0.0178,0.0114 -0.0742,0.0475 -0.0318,0.0279 -0.0614,0.0543 -0.001,0.001 -0.0255,0.0314 -0.0502,0.0611 -5.3e-4,7.1e-4 -0.0185,0.0335 -0.0378,0.0677 -0.0115,0.0356 -0.0221,0.0703 -0.004,0.0366 -0.008,0.0729 v 0.002 1.04935 0.449 l 0.004,0.0366 0.008,0.0729 0.0115,0.0356 0.0221,0.071 0.002,0.004 0.0165,0.0302 0.0378,0.0677 0.0255,0.0314 0.0508,0.0619 0.0318,0.0279 0.0625,0.0553 0.002,0.001 0.0353,0.0227 0.055,0.0352 0.0192,0.0123 0.0415,0.0188 0.0827,0.0384 0.006,0.002 0.0389,0.0123 0.0898,0.0273 0.0478,0.008 0.0951,0.0176 0.008,4.5e-4 0.0406,0.002 0.097,0.005 h 1.48104 0.52 v 0.007 8.8e-4 0.89335 4.09599 0.0449 0.0573 0.006 6e-5 h -0.51985 -1.48101 l -0.0485,0.003 -0.097,0.005 -0.003,5.3e-4 -0.0446,0.008 -0.0951,0.0176 -0.0454,0.0143 -0.0898,0.0273 -0.007,0.003 -0.0344,0.0156 -0.0824,0.0383 -2.4e-4,1.1e-4 -0.0192,0.0123 -0.0178,0.0114 -0.0742,0.0475 -0.0318,0.0279 -0.0625,0.0553 -0.0255,0.0314 -0.0502,0.0611 -5.3e-4,7.9e-4 -0.0185,0.0335 -0.0378,0.0677 -0.0115,0.0359 -0.022,0.0705 -1.3e-4,5.3e-4 -0.004,0.0366 -0.008,0.0729 v 1.24101 0.25899 l 0.004,0.0366 0.008,0.0729 0.0115,0.0352 0.0221,0.0703 0.002,0.004 0.0164,0.03 0.0378,0.0677 0.0255,0.0314 0.0508,0.0618 0.0318,0.0279 0.0625,0.0553 0.002,0.001 0.0353,0.0227 0.055,0.0352 0.0167,0.0107 0.002,0.002 0.0415,0.0188 0.0827,0.0384 0.0454,0.0143 0.0859,0.0261 0.004,10e-4 0.0478,0.008 0.0951,0.0176 0.0485,0.003 0.097,0.005 h 1.48106 0.51751 0.002 v 6e-5 0.006 10e-4 0.0603 1.024 4.096 1.79133 0.12088 6e-5 0.006 6e-5 h -0.52 -1.48101 l -0.0485,0.003 -0.097,0.005 -0.003,5.3e-4 -0.0446,0.008 -0.0951,0.0176 -0.0454,0.0143 -0.0898,0.0273 -0.007,0.003 -0.0344,0.0156 -0.075,0.0349 -0.007,0.004 -2.5e-4,1.2e-4 -0.0192,0.0123 -0.0178,0.0114 -0.0742,0.0475 -0.0318,0.0279 -0.0614,0.0543 -0.001,0.001 -0.0255,0.0314 -0.0508,0.0618 -0.0185,0.0335 -0.0378,0.0677 -5.3e-4,0.002 -0.011,0.0339 -0.0221,0.0703 -0.004,0.0366 -0.008,0.0729 v 0.002 1.47834 0.02 l 0.004,0.0366 0.008,0.0714 1.6e-4,0.002 0.0115,0.0356 0.0221,0.0703 0.0185,0.0335 0.0378,0.0677 0.0255,0.0314 0.0502,0.0611 5.3e-4,7.9e-4 0.0318,0.0279 0.0625,0.0553 0.037,0.0237 0.055,0.0352 0.0192,0.0123 0.0415,0.0188 0.0827,0.0384 0.006,0.002 0.0389,0.0123 0.0859,0.0261 0.004,0.001 0.0478,0.008 0.0951,0.0176 0.0485,0.003 0.097,0.005 h 1.48099 0.51751 0.002 v 0.006 0.001 0.0454 3.326 2.048 1.024 0.1 l -0.049,0.391 -0.008,0.021 -0.13892,0.361 -0.10011,0.151 -0.13989,0.211 -0.084,0.0855 -0.21159,0.21546 -0.0324,0.033 -0.408,0.299 -0.33671,0.18001 -0.0353,0.0189 -0.105,0.0561 -0.535,0.205 -0.38401,0.0993 -0.19599,0.0507 -0.316,0.0471 -0.29401,0.0439 -0.21799,0.0108 -0.40798,0.0197 h -0.616 -2.04802 -2.048013 -2.04801 -1.84001 -0.208 -2.04801 -2.04801 -2.04801 -2.04802 -2.04801 -2.04801 -2.04801 -2.04801 -2.04801 -2.04802 -2.04801 -2.04801 -2.04801 -2.04801 -2.04801 -2.04802 -2.04801 -2.04801 -2.04801 -2.04901 -2.04801 -2.048 -2.048 -2.048 -2.048 -0.992 -1.056 -2.04794 -2.048 -2.048 -2.048 -1.024 -0.728 l -0.296,-0.0147 -0.33,-0.0164 -0.182,-0.0271 -0.428,-0.0639 -0.084,-0.0217 -0.496,-0.12827 -0.528,-0.20233 -0.007,-0.003 -0.14029,-0.075 -0.33671,-0.18 -0.408,-0.299 -0.0324,-0.033 -0.0996,-0.10141 -0.196,-0.19959 -0.13988,-0.211 -0.10012,-0.15099 -0.13892,-0.361 -0.008,-0.021 -0.049,-0.39099 v -0.1 -1.024 -2.048 -3.326 -0.0207 -2e-5 -0.0255 -6e-5 -0.006 h 1.656 0.34151 0.004 l 0.0485,-0.003 0.097,-0.005 0.0478,-0.008 0.0909,-0.0168 0.004,-7.9e-4 0.0454,-0.0143 0.0898,-0.0273 0.0415,-0.0188 0.0827,-0.0384 0.037,-0.0237 0.0732,-0.0473 4e-4,-2.6e-4 0.0207,-0.0181 0.0111,-0.01 0.0632,-0.0553 0.0255,-0.0314 0.0502,-0.0611 5.8e-4,-8e-4 0.0185,-0.0335 0.0378,-0.0677 0.0115,-0.0356 0.022,-0.0699 1.3e-4,-5.2e-4 0.004,-0.0366 0.008,-0.0729 v -0.02 -1.48 l -0.004,-0.0366 -0.008,-0.0714 -1.6e-4,-0.002 -0.0115,-0.0356 -0.0221,-0.0703 -0.0185,-0.0335 -0.0378,-0.0677 -0.0255,-0.0314 -0.0508,-0.0618 -0.0318,-0.0279 -0.0632,-0.0553 -0.037,-0.0237 -0.0736,-0.0475 -0.002,-8e-4 -0.006,-0.003 -0.0337,-0.0153 -0.0827,-0.0384 -0.0454,-0.0143 -0.0898,-0.0273 -0.0478,-0.008 -0.0951,-0.0176 -0.008,-5.3e-4 -0.0406,-0.002 -0.097,-0.005 h -0.34437 -1.656 v -0.006 -1.91227 -4.096 -1.039 -0.0207 -2e-5 -0.0255 -6e-5 -0.006 h 1.656 0.34151 0.004 l 0.0485,-0.003 0.097,-0.005 0.0478,-0.008 0.0909,-0.0168 0.004,-7.9e-4 0.0454,-0.0143 0.0898,-0.0273 0.0415,-0.0188 0.0827,-0.0384 0.037,-0.0237 0.0732,-0.0473 4e-4,-2.5e-4 0.0207,-0.0181 0.0111,-0.01 0.0632,-0.0553 0.0255,-0.0314 0.0496,-0.0604 0.001,-0.001 0.0185,-0.0339 0.0378,-0.0677 0.0115,-0.0352 0.0221,-0.0703 0.004,-0.0366 m 42.17689,-23.11556 0.0748,0.25499 0.0182,0.062 0.031,0.389 -0.031,0.39 -0.053,0.183 -0.04,0.138 -0.155,0.25 -0.22801,0.177 -0.054,0.0188 -0.251,0.0872 -0.381,0.036 -0.383,-0.036 -0.303,-0.106 -0.222,-0.177 -0.155,-0.25 -0.093,-0.321 -0.031,-0.39 0.031,-0.389 0.0182,-0.062 0.0748,-0.25499 0.155,-0.24501 0.228,-0.17499 0.305,-0.105 0.381,-0.035 0.38401,0.035 0.24199,0.0841 0.06,0.0209 0.22201,0.17499 0.155,0.245 m -2.33021,-0.67549 -0.14381,0.10649 -0.011,0.0109 -0.149,0.14714 -0.135,0.18 -0.11,0.201 -0.084,0.226 -0.0123,0.059 -0.0387,0.186 -0.016,0.265 0.015,0.268 0.046,0.247 0.078,0.226 0.10501,0.206 0.132,0.183 0.15599,0.159 0.013,0.01 0.11863,0.0866 0.0534,0.0389 0.1778,0.0957 0.0302,0.0163 0.15833,0.061 0.0727,0.028 0.253,0.063 0.274,0.037 0.296,0.013 0.272,-0.013 0.258,-0.037 0.084,-0.0216 0.161,-0.0414 0.0717,-0.028 0.15627,-0.061 0.205,-0.112 0.185,-0.135 0.16,-0.159 0.136,-0.183 0.10623,-0.20076 0.003,-0.005 0.0602,-0.168 0.0208,-0.058 0.048,-0.247 0.017,-0.268 -0.015,-0.265 -0.0342,-0.186 -0.0109,-0.059 -0.074,-0.226 -0.105,-0.201 -0.131,-0.18 -0.157,-0.158 -0.18201,-0.137 -0.208,-0.112 -0.23399,-0.087 -0.008,-0.002 -0.17089,-0.0439 -0.074,-0.019 -0.274,-0.039 -0.296,-0.013 -0.272,0.013 -0.258,0.039 -0.24501,0.065 -0.227,0.087 -0.0901,0.049 -0.11587,0.063 -0.0412,0.0305 m 4.12671,-0.19783 -0.007,0.10433 -2.1e-4,0.003 0.012,0.183 0.039,0.178 0.064,0.17299 0.092,0.16401 0.12601,0.149 0.157,0.136 0.0581,0.038 0.12991,0.085 0.22601,0.104 0.264,0.087 0.308,0.065 0.351,0.039 0.394,0.013 h 0.612 v 1.73298 h 0.763 v -2.126 -0.0553 -0.0317 -1.756 -0.484 h -1.48401 l -0.242,0.007 -0.108,0.003 -0.317,0.03 -0.283,0.049 -0.248,0.066 -0.217,0.084 -0.0741,0.04 -0.11489,0.062 -0.158,0.11901 -0.12454,0.13337 -0.002,0.003 -0.096,0.153 -0.0394,0.0953 -0.0316,0.0766 -0.042,0.18499 -0.007,0.0927 m 2.30449,1.04133 -0.243,-0.006 -0.199,-0.0145 -0.021,-0.002 -0.197,-0.028 -0.178,-0.039 -0.155,-0.053 -0.133,-0.065 -0.114,-0.079 -0.093,-0.092 -0.071,-0.107 -0.054,-0.125 -0.008,-0.0353 -0.024,-0.10575 -0.011,-0.156 0.004,-0.03 0.0328,-0.232 0.111,-0.213 0.185,-0.163 0.264,-0.11701 0.34701,-0.07 0.11499,-0.006 0.315,-0.0176 h 0.64801 v 1.75599 h -0.521 m -11.29105,-0.036 0.0263,0.123 0.008,0.036 0.02,0.174 0.007,0.187 v 1.729 h 0.548 0.197 v -2.126 -1.219 h -0.19696 -0.409 l -0.0113,0.0471 -0.0154,0.0641 -0.0164,0.0683 -0.004,0.0155 -0.0512,0.21341 -0.007,0.0301 -0.004,0.0155 h -0.0193 -0.0168 l -0.074,-0.083 -0.082,-0.075 -0.083,-0.0604 -0.009,-0.007 -0.0559,-0.034 -0.0411,-0.025 -0.103,-0.054 -0.10901,-0.048 -0.11499,-0.039 -0.11901,-0.031 -0.123,-0.025 -0.127,-0.017 -0.129,-0.01 -0.132,-0.004 -0.192,0.0134 -0.267,0.0186 -0.378,0.098 -0.295,0.162 -0.21201,0.233 -0.12699,0.31001 -0.004,0.0389 -0.0378,0.34711 v 0.056 2.126 h 0.75 v -2.126 -0.025 l 0.025,-0.24101 0.072,-0.19699 0.121,-0.154 0.169,-0.11 0.184,-0.0542 0.04,-0.0118 0.279,-0.022 0.21101,0.009 0.188,0.027 0.164,0.045 0.14,0.06 0.002,0.001 0.119,0.0767 0.103,0.096 0.08,0.109 0.065,0.126 0.048,0.142 m -4.95212,-0.69668 v 0.819 1.024 0.11 l -0.014,0.181 -0.042,0.15 -0.071,0.118 -0.107,0.082 -0.143,0.049 -0.18,0.017 -0.026,-5.1e-4 -0.025,-4.7e-4 -0.057,-0.001 -0.061,-0.003 -0.06,-0.006 -0.059,-0.006 -0.057,-0.006 -0.058,-0.006 -0.052,-0.006 -0.047,-0.006 -0.0131,-0.002 -0.0329,-0.006 -0.038,-0.008 -0.031,-0.006 v 0.38001 0.042 l 0.039,0.014 0.0362,0.009 0.0108,0.003 0.053,0.01 0.055,0.011 0.06,0.011 0.13199,0.018 0.069,0.007 0.071,0.007 0.065,0.005 0.004,2.9e-4 0.068,0.003 0.069,0.001 0.166,-0.006 0.157,-0.016 0.149,-0.028 0.139,-0.038 0.1183,-0.053 0.007,-0.003 0.11199,-0.072 0.035,-0.0312 0.066,-0.0588 0.084,-0.107 0.069,-0.126 0.047,-0.14901 0.028,-0.17199 0.01,-0.195 v -0.11 -1.024 -0.819 h 0.20761 0.4274 v -0.23801 l -0.635,-0.224 -0.31499,-0.701 h -0.42976 v 0.763 h -1.13733 v 0.4 h 1.13797 m 22.6001,0.682 -0.17801,-0.039 -0.156,-0.053 -0.13199,-0.065 -0.11401,-0.079 -0.075,-0.0742 -0.018,-0.0178 -0.072,-0.107 -0.053,-0.125 -0.033,-0.141 -0.01,-0.156 0.004,-0.03 0.0328,-0.232 0.11101,-0.21299 0.038,-0.0335 0.147,-0.12952 0.263,-0.11701 0.34701,-0.07 0.431,-0.024 h 0.648 v 1.756 h -0.521 l -0.243,-0.006 -0.22001,-0.016 -0.197,-0.028 m -33.06233,-0.88699 v 1.02399 2.12601 h 0.721 v -2.12599 -0.93599 l -9e-4,-0.088 -1.1e-4,-0.011 -0.002,-0.098 -0.003,-0.099 -0.004,-0.097 -0.004,-0.095 -0.004,-0.091 -9.8e-4,-0.021 -0.003,-0.065 -0.004,-0.079 -0.002,-0.0389 -7.7e-4,-0.0139 -4.2e-4,-0.008 -2.5e-4,-0.005 -3.7e-4,-0.007 -6e-5,-0.001 0.045,0.035 0.041,0.031 0.035,0.029 0.036,0.026 0.0124,0.009 0.0236,0.0164 0.037,0.025 0.04,0.024 0.0339,0.022 0.006,0.004 0.041,0.026 0.043,0.029 0.048,0.031 0.054,0.034 0.5,0.30363 0.10601,0.0644 0.393,-0.372 -0.49901,-0.28991 -0.58879,-0.34209 -0.48021,-0.279 h -0.61781 v 0.279 1.024 m 4.69701,2.142 -0.0366,-0.094 -0.005,-0.014 -0.041,-0.105 -0.039,-0.10101 -0.034,-0.087 -0.03,-0.073 -0.28242,-0.644 -0.49358,-1.12551 -0.041,-0.0935 h -0.77498 l 0.14423,0.31266 0.41808,0.90634 0.25369,0.54997 0.21867,0.47403 0.47236,1.024 0.036,0.078 h 0.945 l 0.0359,-0.078 0.13335,-0.29 0.20679,-0.44976 0.60152,-1.30824 0.56049,-1.219 h -0.76901 l -0.53524,1.219 -0.28276,0.644 -0.0224,0.0528 -0.009,0.0202 -0.036,0.087 -0.042,0.10101 -0.04,0.10499 -0.005,0.014 -0.0348,0.094 -0.041,0.11 -0.039,0.106 -0.039,0.103 -0.037,0.101 -0.029,0.088 -0.022,0.073 -0.015,0.059 h -0.011 -0.008 -0.004 -0.002 -0.004 -0.003 l -0.015,-0.059 -0.022,-0.073 -0.029,-0.088 -0.034,-0.101 -0.036,-0.103 -0.021,-0.0571 -0.018,-0.0489 -0.044,-0.11 m 23.0961,20.909 -0.27901,-0.14201 -0.309,-0.049 -0.309,0.049 -0.279,0.14201 -0.221,0.221 -0.142,0.279 -1.6e-4,0.001 -0.0488,0.30799 0.049,0.30901 0.142,0.279 0.221,0.221 0.279,0.14199 0.309,0.049 0.30901,-0.049 0.279,-0.14199 0.221,-0.221 0.142,-0.279 0.049,-0.30901 -0.0488,-0.30799 -1.6e-4,-0.001 -0.142,-0.279 -0.22097,-0.22102 m -46.05312,14.523 -0.16015,0.314 -0.0179,0.035 -0.062,0.387 0.062,0.387 0.178,0.349 0.277,0.277 0.349,0.178 0.387,0.061 0.387,-0.061 0.115,-0.0587 0.234,-0.11934 0.277,-0.277 0.17801,-0.34901 0.061,-0.38699 -0.061,-0.387 -0.0178,-0.035 -0.16015,-0.314 -0.277,-0.277 -0.349,-0.17801 -0.387,-0.062 -0.387,0.062 -0.349,0.17801 -0.277,0.277 m 1.39999,-37.573 0.115,-0.0587 0.234,-0.11935 0.277,-0.277 0.178,-0.349 0.0348,-0.221 0.0262,-0.166 -0.061,-0.387 -0.178,-0.349 -0.277,-0.277 -0.234,-0.11935 -0.115,-0.0587 -0.387,-0.062 -0.387,0.062 -0.349,0.17801 -0.277,0.277 -0.17801,0.34899 -0.062,0.38701 0.0266,0.166 0.0354,0.221 0.17801,0.349 0.277,0.277 0.349,0.178 0.387,0.061 0.387,-0.061 m 47.17224,-0.98399 0.005,-0.041 0.009,-0.068 -0.014,-0.112 -0.043,-0.088 -0.07,-0.065 -0.089,-0.048 -0.103,-0.028 -0.117,-0.009 -0.043,0.002 -0.016,5.3e-4 -0.057,0.007 -0.054,0.013 -0.05,0.015 -0.047,0.021 -0.042,0.027 -0.038,0.03 -0.032,0.036 -0.027,0.042 -0.017,0.045 -0.01,0.052 -0.003,0.06 0.009,0.068 0.005,0.038 0.042,0.087 0.071,0.067 0.091,0.047 0.103,0.029 0.11499,0.009 0.117,-0.009 0.103,-0.027 0.089,-0.045 0.07,-0.067 0.043,-0.088 m 3.21003,-0.32 -0.35001,0.01 -0.317,0.03 -0.283,0.049 -0.165,0.0439 -0.083,0.0221 -0.218,0.084 -0.0737,0.04 -0.11428,0.062 -0.158,0.119 -0.127,0.136 -0.097,0.153 -0.07,0.172 -0.043,0.185 -0.0138,0.197 -2.1e-4,0.003 0.013,0.183 0.038,0.178 0.064,0.173 0.093,0.164 0.125,0.149 0.158,0.13601 0.0581,0.038 0.12992,0.085 0.226,0.10399 0.093,0.0307 0.171,0.0564 0.308,0.065 0.351,0.039 0.39401,0.013 h 0.61202 v 1.73296 h 0.762 v -2.126 -2.327 h -0.55 -0.93301 m -13.86806,16.97 0.0487,-0.307 2.6e-4,-0.002 -0.049,-0.309 -0.142,-0.279 -0.221,-0.221 -0.279,-0.142 -0.309,-0.05 -0.309,0.05 -0.27901,0.142 -0.044,0.044 -0.177,0.17699 -0.142,0.279 -0.049,0.30901 0.049,0.30899 0.142,0.27901 0.177,0.177 0.044,0.044 0.27901,0.142 0.309,0.049 0.309,-0.049 0.279,-0.142 0.221,-0.221 0.142,-0.279 m 31.408173,22.256 -0.061,0.387 0.061,0.387 0.178,0.349 0.277,0.277 0.349,0.178 0.387,0.061 0.38701,-0.061 0.247,-0.12598 0.102,-0.052 0.277,-0.277 0.178,-0.349 0.062,-0.387 -0.062,-0.387 -0.0179,-0.035 -0.16015,-0.314 -0.27701,-0.277 -0.10199,-0.052 -0.247,-0.12598 -0.38701,-0.062 -0.387,0.062 -0.349,0.178 -0.277,0.277 -0.16015,0.314 -0.0179,0.035 m -39.861213,-14.063 -0.0488,-0.308 -1.6e-4,-10e-4 -0.142,-0.279 -0.221,-0.221 -0.279,-0.142 -0.309,-0.049 -0.309,0.049 -0.27899,0.142 -0.221,0.221 -0.142,0.279 -1.6e-4,10e-4 -0.0498,0.308 0.05,0.309 0.142,0.279 0.221,0.221 0.27899,0.142 0.309,0.049 0.30901,-0.049 0.27899,-0.142 0.221,-0.221 0.142,-0.279 0.049,-0.309 m 39.861223,-25.43701 -0.061,0.387 0.0262,0.166 0.0348,0.221 0.178,0.349 0.277,0.277 0.349,0.178 0.387,0.061 0.387,-0.061 0.24701,-0.12597 0.102,-0.052 0.277,-0.277 0.178,-0.349 0.0354,-0.221 0.0266,-0.166 -0.062,-0.38701 -0.178,-0.34899 -0.277,-0.277 -0.102,-0.052 -0.24701,-0.12598 -0.387,-0.062 -0.387,0.062 -0.349,0.178 -0.277,0.277 -0.178,0.349 m -32.947183,33.13 -0.044,0.044 -0.177,0.177 -0.142,0.279 -0.049,0.309 0.049,0.309 0.142,0.279 0.177,0.177 0.044,0.044 0.27901,0.142 0.309,0.049 0.309,-0.049 0.279,-0.142 0.221,-0.221 0.142,-0.279 0.049,-0.309 -0.049,-0.309 -0.142,-0.279 -0.03,-0.03 -0.191,-0.19099 -0.279,-0.142 -0.309,-0.049 -0.309,0.049 -0.27901,0.142 m -0.364,-32.937 -0.042,0.027 -0.038,0.03 -0.032,0.036 -0.027,0.042 -0.017,0.045 -0.01,0.052 -0.003,0.06 0.009,0.068 0.005,0.038 0.042,0.087 0.071,0.067 0.091,0.047 0.103,0.029 0.115,0.009 0.053,-0.004 0.064,-0.005 0.103,-0.027 0.088,-0.045 0.071,-0.067 0.042,-0.088 0.005,-0.041 0.009,-0.068 -0.014,-0.112 -0.042,-0.088 -0.071,-0.065 -0.088,-0.048 -0.103,-0.028 -0.064,-0.005 -0.053,-0.004 -0.06,0.002 -0.056,0.007 -0.054,0.013 -0.05,0.015 -0.047,0.021 m -0.103,1.18901 v 1.21899 2.126 h 0.74501 v -2.12601 -1.219 h -0.32197 -0.423 m 11.87206,0 v 1.219 2.126 h 0.745 v -2.126 -1.219 h -0.33804 -0.3893 z"
       id="path3721-9" />
    <path
       inkscape:connector-curvature="0"
       style="fill:none;stroke:#0000ff;stroke-width:0.01mm"
       d="m 186.02853,134.35552 -0.218,0.0108 -0.408,0.0202 h -0.616 -4.096 -3.888 -0.208 -4.096 -4.096 -4.096 -4.096 -4.096 -4.096 -4.096 -4.096 -4.096 -4.096 -4.096 -4.096 -3.04 -1.056 -4.096 -4.096 -1.752 l -0.296,-0.0147 -0.33,-0.0164 -0.61,-0.091 -0.58,-0.15 -0.0418,-0.016 -0.48625,-0.18632 -0.007,-0.003 -0.47699,-0.255 -0.40801,-0.299 -0.27595,-0.281 -0.052,-0.053 -0.24,-0.362 -0.147,-0.382 -0.0285,-0.227 -0.0205,-0.16398 v -1.884 -4.614 h 1.656 0.345 l 0.156,-0.009 0.154,-0.028 0.145,-0.045 0.134,-0.061 0.119,-0.077 0.102,-0.089 0.082,-0.101 0.06,-0.108 0.037,-0.115 0.012,-0.117 v -0.78 -0.72 l -0.012,-0.117 -0.037,-0.115 -0.06,-0.108 -0.082,-0.101 -0.102,-0.089 -0.119,-0.077 -0.134,-0.061 -0.145,-0.045 -0.154,-0.028 -0.156,-0.009 h -0.345 -1.656 v -0.578 -4.096 -2.048 -0.27894 -6e-5 h 1.656 0.345 l 0.156,-0.009 0.154,-0.028 0.145,-0.045 0.134,-0.061 0.119,-0.077 0.102,-0.089 0.082,-0.101 0.06,-0.108 0.037,-0.115 0.012,-0.117 v -1.019 -0.481 l -0.012,-0.117 -0.037,-0.116 -0.06,-0.108 -0.082,-0.101 -0.102,-0.089 -0.119,-0.077 -0.134,-0.061 -0.145,-0.045 -0.154,-0.028 -0.156,-0.009 h -0.345 -1.656 v -0.81602 -2.04799 -2.048 -0.0285 -0.0595 h 1.656 0.345 l 0.156,-0.009 0.154,-0.028 0.145,-0.045 0.134,-0.061 0.119,-0.077 0.102,-0.089 0.082,-0.101 0.06,-0.10801 0.037,-0.11599 0.012,-0.117 v -1.209 -0.291 l -0.012,-0.117 -0.037,-0.11501 -0.06,-0.10799 -0.082,-0.101 -0.102,-0.089 -0.119,-0.077 -0.134,-0.061 -0.145,-0.045 -0.154,-0.028 -0.156,-0.009 h -0.345 -1.656 v -0.0196 -0.04 -0.33913 -0.29127 -0.31709 -2.048 -3.707236 -0.179245 -0.03997 -0.01949 -5.7e-5 h 1.656 0.345 l 0.156,-0.009 0.154,-0.028 0.145,-0.045 0.134,-0.061 0.0108,-0.007 0.10818,-0.07 0.102,-0.089 0.082,-0.100998 0.06,-0.108001 0.037,-0.114998 0.012,-0.117001 v -1.448 -0.052 l -0.012,-0.117 -0.037,-0.115002 -0.06,-0.107998 -0.082,-0.101002 -0.102,-0.089 -0.119,-0.077 -0.134,-0.061 -0.145,-0.045 -0.154,-0.029 -0.156,-0.009 h -0.345 -1.656 v -5.340987 -2.047996 -0.108002 l 0.049,-0.390999 0.147,-0.382 0.0948,-0.143001 0.14519,-0.218998 0.328,-0.334004 0.408,-0.299 0.32174,-0.171997 0.15526,-0.083 0.007,-0.0027 0.528,-0.20232 0.496,-0.128276 0.084,-0.02172 0.61,-0.091 0.33,-0.01634 0.296,-0.01465 h 1.752 4.096 4.096 1.056 3.04 4.096 4.096 4.096 4.096 4.096 4.096 4.096 4.096 4.096 4.096 4.096 4.096 0.208 3.888 4.096 0.616 l 0.408,0.0202 0.218,0.01079 0.61,0.091 0.196,0.05069 0.384,0.09931 0.535,0.205002 0.15526,0.083 0.32174,0.171997 0.408,0.299 0.244,0.248467 0.084,0.08554 0.14519,0.218998 0.0948,0.143001 0.147,0.382 0.049,0.391005 v 0.108002 2.047996 4.096001 1.245003 h -0.52 -1.481 l -0.156,0.009 -0.154,0.029 -0.14499,0.045 -0.134,0.061 -0.11901,0.077 -0.102,0.089 -0.082,0.101002 -0.06,0.107998 -0.037,0.115002 -0.012,0.117 v 0.052 1.448002 l 0.012,0.117001 0.037,0.114998 0.06,0.108001 0.082,0.100998 0.102,0.089 0.10818,0.07 0.0108,0.007 0.134,0.061 0.145,0.045 0.154,0.028 0.156,0.009 h 1.481 0.52 v 0.11544 0.267743 0.297023 0.852677 2.413121 2.048 1.007 h -0.52 -1.481 l -0.156,0.009 -0.154,0.028 -0.145,0.045 -0.134,0.061 -0.119,0.077 -0.102,0.089 -0.082,0.101 -0.06,0.108 -0.037,0.115 -0.012,0.117 v 0.291 1.209 l 0.012,0.117 0.037,0.116 0.06,0.108 0.082,0.101 0.102,0.089 0.119,0.077 0.134,0.061 0.145,0.045 0.154,0.028 0.156,0.009 h 1.481 0.52 v 0.0595 0.0285 2.048 2.048 0.816 h -0.52 -1.481 l -0.156,0.009 -0.154,0.028 -0.145,0.045 -0.134,0.061 -0.119,0.077 -0.102,0.089 -0.082,0.101 -0.06,0.108 -0.037,0.116 -0.012,0.117 v 0.481 1.019 l 0.012,0.117 0.037,0.115 0.06,0.108 0.082,0.101 0.102,0.089 0.119,0.077 0.134,0.061 0.145,0.045 0.154,0.028 0.156,0.009 h 1.481 0.52 v 0.279 2.048 4.096 0.578 h -0.52 -1.481 l -0.156,0.009 -0.154,0.028 -0.145,0.045 -0.134,0.061 -0.119,0.077 -0.102,0.089 -0.082,0.101 -0.06,0.108 -0.037,0.115 -0.012,0.117 v 0.72 0.78 l 0.012,0.117 0.037,0.115 0.06,0.108 0.082,0.101 0.102,0.089 0.119,0.077 0.134,0.061 0.145,0.045 0.154,0.028 0.156,0.009 h 1.481 0.52 v 0.518 4.096 1.884 l -0.0206,0.164 -0.0285,0.227 -0.147,0.382 -0.24,0.362 -0.0521,0.053 -0.0319,0.0325 -0.244,0.24846 -0.408,0.299 -0.372,0.19887 -0.105,0.0561 -0.49324,0.189 -0.0418,0.016 -0.384,0.0993 -0.196,0.0507 -0.61,0.091 m -70.989,-4.028 0.115,-0.0587 0.234,-0.11935 0.147,-0.147 0.13,-0.13 0.178,-0.349 0.061,-0.387 -0.061,-0.387 -0.178,-0.349 -0.277,-0.277 -0.234,-0.11934 -0.115,-0.0587 -0.387,-0.062 -0.387,0.062 -0.349,0.17799 -0.277,0.277 -0.17801,0.34901 -0.062,0.38699 0.062,0.387 0.17801,0.34901 0.13,0.12999 0.147,0.14701 0.349,0.17799 0.387,0.061 0.387,-0.061 m 68.726,0 0.387,0.061 0.387,-0.061 0.247,-0.12597 0.102,-0.052 0.147,-0.147 0.13,-0.13 0.178,-0.349 0.062,-0.387 -0.062,-0.387 -0.178,-0.349 -0.277,-0.277 -0.102,-0.052 -0.247,-0.12598 -0.387,-0.062 -0.387,0.062 -0.349,0.178 -0.277,0.277 -0.178,0.349 -0.061,0.387 0.061,0.387 0.178,0.349 0.13,0.13 0.147,0.147 0.349,0.178 m 0.774,-39.500004 0.247,-0.12598 0.102,-0.05202 0.277,-0.277 0.178,-0.348999 0.062,-0.387001 -0.062,-0.387001 -0.10557,-0.207001 -0.0724,-0.141998 -0.277,-0.277 -0.102,-0.05202 -0.24701,-0.12598 -0.38699,-0.062 -0.38701,0.062 -0.34899,0.178002 -0.277,0.277 -0.0724,0.141998 -0.10558,0.207001 -0.061,0.387001 0.061,0.387001 0.178,0.348999 0.277,0.277 0.349,0.178002 0.387,0.061 0.387,-0.061 m -71.078,-1.578023 -0.062,0.387001 0.062,0.387001 0.178,0.348999 0.277,0.277 0.349,0.178002 0.387,0.061 0.387,-0.061 0.349,-0.178002 0.277,-0.277 0.178,-0.348999 0.061,-0.387001 -0.061,-0.387001 -0.10558,-0.207001 -0.0724,-0.141998 -0.277,-0.277 -0.234,-0.119347 -0.115,-0.05865 -0.387,-0.062 -0.387,0.062 -0.349,0.178002 -0.277,0.277 -0.0724,0.141998 -0.10558,0.207001 m 34.13801,40.639018 h 4.41899 16.384 8.4 2.103 v -16.2694 -16.384003 -8.192002 -0.158996 h -2.103 -0.208 -4.096 -4.096 -4.096 -4.096 -4.096 -4.096 -4.096 -4.096 -4.096 -4.096 -4.096 -4.096 -3.04 -1.056 -3.447 v 0.158996 8.192002 16.384003 16.27 h 4.503 11.232 3.465 2 z"
       id="path3794" />
  </g>
</svg>
